<svg xmlns="http://www.w3.org/2000/svg" viewBox="0 0 500 500"><g id="freepik--background-simple--inject-82"><path d="M471.42,327.16c-5-6.5-15.95-7.57-30-4.08,15.72-23.61,24.55-52.86,27.68-79.4,6.76-57.24-10.82-125.12-52.18-167.58q-3.18-3.25-6.52-6.3c-29.76-27-72.77-40-112.2-40.94a225.16,225.16,0,0,0-51.45,4.88A184,184,0,0,0,192.51,54c-10-12.86-50.72,1.86-90.95,32.92s-64.82,66.76-54.84,79.69c7,9.11,29.3,4.49,55.93-9.88-7,11.79-13.43,21.88-20.22,28.75C51.57,216.69,5,268.53,28.33,347.72c17.72,60.21,66,110.09,137.77,120.58a194.37,194.37,0,0,0,24.57,2,232,232,0,0,0,50.06-4.73c39-7.82,63.92-19.15,82.25-32a13.71,13.71,0,0,0,2.61,6.19c11.4,14.77,53.28,1.53,93.55-29.55S482.81,341.92,471.42,327.16Z" style="fill:#AEB5ED"></path><path d="M471.42,327.16c-5-6.5-15.95-7.57-30-4.08,15.72-23.61,24.55-52.86,27.68-79.4,6.76-57.24-10.82-125.12-52.18-167.58q-3.18-3.25-6.52-6.3c-29.76-27-72.77-40-112.2-40.94a225.16,225.16,0,0,0-51.45,4.88A184,184,0,0,0,192.51,54c-10-12.86-50.72,1.86-90.95,32.92s-64.82,66.76-54.84,79.69c7,9.11,29.3,4.49,55.93-9.88-7,11.79-13.43,21.88-20.22,28.75C51.57,216.69,5,268.53,28.33,347.72c17.72,60.21,66,110.09,137.77,120.58a194.37,194.37,0,0,0,24.57,2,232,232,0,0,0,50.06-4.73c39-7.82,63.92-19.15,82.25-32a13.71,13.71,0,0,0,2.61,6.19c11.4,14.77,53.28,1.53,93.55-29.55S482.81,341.92,471.42,327.16Z" style="fill:#fff;opacity:0.7000000000000001"></path></g><g id="freepik--Dish--inject-82"><circle cx="249.95" cy="230.36" r="137.56" transform="translate(-89.68 244.21) rotate(-45)" style="fill:#263238"></circle><path d="M250,368.42c-76.13,0-138.06-61.94-138.06-138.06S173.82,92.29,250,92.29,388,154.23,388,230.36,326.08,368.42,250,368.42Zm0-275.13c-75.58,0-137.06,61.49-137.06,137.07S174.37,367.42,250,367.42,387,305.93,387,230.36,325.52,93.29,250,93.29Z" style="fill:#263238"></path><circle cx="249.95" cy="226.25" r="137.56" transform="translate(-86.77 243.01) rotate(-45)" style="fill:#fff"></circle><path d="M250,364.31c-76.13,0-138.06-61.93-138.06-138.06S173.82,88.19,250,88.19,388,150.12,388,226.25,326.08,364.31,250,364.31Zm0-275.12c-75.58,0-137.06,61.48-137.06,137.06S174.37,363.31,250,363.31,387,301.82,387,226.25,325.52,89.19,250,89.19Z" style="fill:#263238"></path><circle cx="249.95" cy="230.36" r="100.28" transform="translate(-89.68 244.21) rotate(-45)" style="fill:#fff"></circle><path d="M250,331.13A100.78,100.78,0,1,1,350.72,230.36,100.89,100.89,0,0,1,250,331.13Zm0-200.55a99.78,99.78,0,1,0,99.77,99.78A99.89,99.89,0,0,0,250,130.58Z" style="fill:#263238"></path></g><g id="freepik--Food--inject-82"><path d="M289.9,147.81C260.16,137.52,219,149,203,158.11c0,0-44.62,22.88-49.19,67.49S182.37,312.54,243,324s101.81-48,101.81-90.37S319.64,158.11,289.9,147.81ZM256.06,252.34c-15.18,1.44-26-8-23.14-21a20.48,20.48,0,0,1,14.74-15c7.57-2,16,.33,20,9.17C271.25,233.54,271.25,250.89,256.06,252.34Z" style="fill:#263238"></path><path d="M288.7,144.23c-29.74-10.3-70.92,1.14-86.94,10.29,0,0-44.61,22.88-49.19,67.5S181.17,309,241.8,320.4s101.81-48,101.81-90.37S318.45,154.52,288.7,144.23ZM254.87,248.75c-15.19,1.45-26-7.95-23.14-21,1.69-7.61,7.88-13.09,14.73-14.95,7.58-2.05,16,.34,20,9.17C270.05,230,270.05,247.31,254.87,248.75Z" style="fill:#AEB5ED"></path><path d="M256.94,322.35a82.36,82.36,0,0,1-15.23-1.46c-29.15-5.5-53.13-18.26-69.35-36.91-15.37-17.67-22.58-39.69-20.29-62,4.55-44.37,49-67.66,49.46-67.89,15.4-8.8,56.86-20.88,87.34-10.32C321.4,155,344.11,190.49,344.11,230c0,25.77-14.67,55.25-36.51,73.35C296.55,312.54,279.46,322.35,256.94,322.35Zm4.81-181.72c-24.16,0-48.69,8-59.74,14.33-.46.24-44.45,23.29-48.94,67.11-4.8,46.83,31.72,87.06,88.82,97.84,29.77,5.61,51.82-6.31,65.07-17.3,21.63-17.92,36.15-47.09,36.15-72.58,0-39.12-22.44-74.21-54.57-85.33A82.38,82.38,0,0,0,261.75,140.63ZM251.8,249.4c-7.08,0-13.17-2.39-17-6.76a16.56,16.56,0,0,1-3.53-15,21,21,0,0,1,15.09-15.33c8.8-2.38,16.87,1.33,20.56,9.44,2.43,5.35,3.1,14.34-.45,20.47-2.4,4.14-6.27,6.49-11.53,7l0-.5,0,.5C253.86,249.35,252.82,249.4,251.8,249.4Zm-.23-36.75a19.06,19.06,0,0,0-5,.67,20,20,0,0,0-14.37,14.57,15.57,15.57,0,0,0,3.3,14.09c4.2,4.76,11.24,7,19.3,6.28,4.91-.47,8.53-2.66,10.75-6.5,3.39-5.84,2.74-14.43.41-19.55C262.77,215.14,257,212.65,251.57,212.65Z" style="fill:#263238"></path><path d="M339.47,228.51c-7.23-13-8.68-17.36-8.68-27.48s-5.78-21-10.85-24.58-8.67-6.51-16.63-14.47-18.8-10.84-27.47-9.4-13,1.45-23.87,0-10.84-4.33-21-.72S201.36,162,201.36,162s-21,8.68-24.59,18.08-1.44,26.76-4.33,34-10.85,4.33-7.24,21,9.4,26,9.4,34,13,22.42,24.59,22.42,19.52,2.17,30.37,10.84,19.52,11.57,33.26,4.34,30.37-6.51,37.6-7.23,16.63-12.29,19.52-22.42,14.47-10.84,18.08-21c1.16-3.25,2.46-5.89,3.47-8.42a87.46,87.46,0,0,0,1.58-8.89A26.21,26.21,0,0,0,339.47,228.51Zm-68.7-.73c-5.06,3.62.73,13.74-6.5,21.7s-7.23-.73-9.4-.73a28.63,28.63,0,0,1-9.79-.67c-3.22-.5-6.42-1.39-8.29-2.94-4.34-3.62-7.23-5.79-13-6.51s-.72-6.51,2.9-12.29,4.34-5.79,5.06-12.29,10.84-7.23,10.84-7.23,4.34-2.17,13,0,6.51,6.5,13.74,8S275.84,224.17,270.77,227.78Z" style="fill:#263238"></path><path d="M248.61,311.2c-6.92,0-12.82-3.32-19.36-8.55-11.29-9-19.27-10.73-30.06-10.73C187,291.92,174.1,277,174.1,269c0-4.12-1.6-8.71-3.64-14.52a155.28,155.28,0,0,1-5.74-19.36c-2.49-11.44.41-13.92,3.48-16.54a11.71,11.71,0,0,0,3.77-4.72c1.34-3.34,1.57-9,1.82-15,.29-6.87.58-14,2.52-19,3.65-9.49,24-18,24.86-18.36.23-.08,19.66-6.56,29.67-10.13,7-2.52,9.36-1.93,13.54-.85a60.35,60.35,0,0,0,7.66,1.55c10.84,1.44,15,1.44,23.71,0,9.72-1.62,20.42,2,27.92,9.54,7.71,7.71,11.34,10.68,16.57,14.41s11.05,14.76,11.05,25c0,9.87,1.37,14.19,8.62,27.24h0a27,27,0,0,1,3.66,10.36.41.41,0,0,1,0,.11,84.52,84.52,0,0,1-1.59,8.94c-.41,1-.83,2-1.28,3.06-.73,1.69-1.49,3.43-2.2,5.41-1.83,5.12-5.62,7.9-9.29,10.58s-7.35,5.38-8.77,10.36c-2.83,9.9-12.16,22-20,22.78-1.39.14-3.12.22-5.11.32-8.48.42-21.29,1.06-32.31,6.85C257.59,309.92,252.9,311.19,248.61,311.2Zm-9.73-160.59a23.06,23.06,0,0,0-7.71,1.72c-10,3.58-29.46,10.06-29.65,10.13s-20.78,8.69-24.28,17.78c-1.88,4.88-2.17,11.9-2.45,18.7-.25,6.06-.49,11.79-1.89,15.29a12.54,12.54,0,0,1-4.05,5.11c-3,2.53-5.52,4.71-3.16,15.57a154.8,154.8,0,0,0,5.71,19.24c2.07,5.9,3.7,10.56,3.7,14.85,0,7.62,12.76,21.92,24.09,21.92,11,0,19.17,1.74,30.68,10.95,10.27,8.22,18.92,11.55,32.72,4.29,11.21-5.9,24.15-6.54,32.72-7,2-.1,3.69-.18,5.06-.32,6.65-.66,16.1-11.59,19.09-22.05,1.52-5.32,5.4-8.15,9.15-10.89,3.55-2.6,7.22-5.28,8.94-10.11.72-2,1.48-3.78,2.22-5.47.44-1,.87-2,1.25-3a84.74,84.74,0,0,0,1.55-8.71,26.3,26.3,0,0,0-3.54-9.92h0c-7.35-13.23-8.74-17.64-8.74-27.72,0-9.77-5.6-20.58-10.64-24.18-5.27-3.76-8.93-6.75-16.69-14.51-7.28-7.28-17.64-10.83-27-9.26-8.68,1.44-13.17,1.44-24,0a61.28,61.28,0,0,1-7.78-1.57A20.23,20.23,0,0,0,238.88,150.61Zm20.43,102.72H259c-1.5-.16-2.32-1.54-3-2.66-.4-.69-.82-1.41-1.18-1.41a28.75,28.75,0,0,1-9.91-.68c-3.94-.62-6.81-1.64-8.49-3-4.2-3.5-7.07-5.68-12.76-6.39-1.51-.19-2.44-.72-2.85-1.61-.89-2,1.17-5.07,3.57-8.67.61-.91,1.23-1.84,1.81-2.78s1.16-1.81,1.62-2.52c2.25-3.46,2.79-4.28,3.37-9.56.73-6.57,10.1-7.57,11.22-7.67.7-.31,5.09-2,13.26,0a13.71,13.71,0,0,1,7.79,4.53,9.41,9.41,0,0,0,5.93,3.42c3,.61,5,2.37,5.59,5,.67,3.13-1,6.8-3.95,8.94-2.11,1.51-2.16,4.28-2.22,7.79-.07,4.18-.16,9.37-4.21,13.83C262.46,252.21,260.76,253.33,259.31,253.33Zm-4.49-5.07c1,0,1.52.92,2.1,1.9s1.2,2.06,2.21,2.17,2.74-1,4.77-3.19c3.8-4.18,3.88-9,4-13.17.07-3.65.12-6.8,2.63-8.59h0c2.69-1.92,4.15-5.17,3.56-7.92-.47-2.18-2.18-3.67-4.81-4.2a10.39,10.39,0,0,1-6.46-3.71,12.67,12.67,0,0,0-7.3-4.25c-8.36-2.09-12.63-.06-12.67,0a.45.45,0,0,1-.19.05c-.1,0-9.72.78-10.38,6.79-.62,5.52-1.23,6.46-3.53,10-.46.71-1,1.53-1.61,2.51s-1.21,1.89-1.83,2.81c-2,3.07-4.15,6.24-3.49,7.7.25.54.95.89,2.07,1,6,.74,8.93,3,13.27,6.61,1.54,1.29,4.25,2.24,8,2.84a28.29,28.29,0,0,0,9.66.67Z" style="fill:#263238"></path><path d="M232.5,241.83a18.89,18.89,0,0,0-8.73-3.2c-1.64-.2-2.39-.83-2.56-1.74q-6.26,3.72-13,7.69a350.84,350.84,0,0,0-33.74,22.28,17.34,17.34,0,0,1,.14,2.14c0,3.17,2.08,7.38,5.3,11.29,2.1-1.6,4.41-3.3,7-5.12C195.53,269.07,214,255.14,232.5,241.83Z" style="fill:#fff"></path><path d="M179.9,280.79a.49.49,0,0,1-.38-.18c-3.44-4.17-5.42-8.41-5.42-11.61a17,17,0,0,0-.14-2.08.51.51,0,0,1,.2-.46,353,353,0,0,1,33.78-22.31c4.52-2.65,8.84-5.21,13-7.69a.47.47,0,0,1,.46,0,.5.5,0,0,1,.29.36c.09.48.41,1.13,2.14,1.35a19.33,19.33,0,0,1,8.93,3.27.49.49,0,0,1,0,.82c-9.93,7.13-19.65,14.3-28.22,20.63-7.18,5.3-13.38,9.88-17.4,12.72-2.31,1.63-4.58,3.3-7,5.11A.52.52,0,0,1,179.9,280.79ZM175,267.09a17.34,17.34,0,0,1,.11,1.91c0,2.84,1.82,6.78,4.89,10.6,2.25-1.71,4.41-3.29,6.6-4.84,4-2.83,10.21-7.41,17.39-12.7,8.4-6.21,17.9-13.22,27.63-20.21a18.23,18.23,0,0,0-7.9-2.72,3.36,3.36,0,0,1-2.77-1.5c-4,2.39-8.16,4.84-12.49,7.38A352.7,352.7,0,0,0,175,267.09Z" style="fill:#263238"></path><path d="M198,210.28c24.1-18.54,38.93-30.59,63-40.78,11.22-4.75,23.65-9.3,34.38-13.37a32.92,32.92,0,0,0-12.34-3.76c-3,1-6.08,2.11-9.07,3.22-25,9.27-46.35,17.61-78.79,46.35-12.37,10.95-22.71,20.69-30.78,28.55a45.46,45.46,0,0,0,.76,4.53c.27,1.22.55,2.39.84,3.54C173,230.86,182.68,222.07,198,210.28Z" style="fill:#fff"></path><path d="M166,239.06l-.12,0a.5.5,0,0,1-.37-.36c-.29-1.15-.57-2.33-.83-3.56a41.15,41.15,0,0,1-.77-4.57.5.5,0,0,1,.15-.42c9.69-9.44,20.05-19,30.79-28.56,33.38-29.57,55.51-37.77,78.95-46.45,2.91-1.08,6-2.16,9.07-3.22a.39.39,0,0,1,.21,0,33.61,33.61,0,0,1,12.54,3.82.5.5,0,0,1-.06.91l-6.35,2.4c-9.32,3.5-19,7.12-28,11-22.4,9.47-36.61,20.43-58.12,37l-4.8,3.7c-14.39,11.06-24.52,20-31.9,28.21A.5.5,0,0,1,166,239.06ZM165,230.68c.15,1.3.39,2.69.72,4.23.2.9.4,1.77.61,2.62,7.36-8,17.37-16.85,31.4-27.64l.3.39-.3-.39,4.8-3.71c21.57-16.63,35.82-27.62,58.34-37.14,9.08-3.84,18.73-7.47,28.06-11l5.3-2a32.49,32.49,0,0,0-11.06-3.18c-3.07,1.05-6.08,2.12-8.95,3.18-23.35,8.65-45.4,16.81-78.64,46.25C184.89,211.76,174.6,221.3,165,230.68Z" style="fill:#263238"></path><path d="M263.26,211.33a9.78,9.78,0,0,0,6.07,3.44,8.25,8.25,0,0,1,2.43.88l1.33-.73c13.18-7.14,36.46-19.5,53.63-29.73a28.59,28.59,0,0,0-5.14-7.33c-8.39,4.13-17.31,8.91-24.39,13C287.88,196.14,276.87,202.94,263.26,211.33Z" style="fill:#fff"></path><path d="M271.76,216.15a.5.5,0,0,1-.24-.06,7.68,7.68,0,0,0-2.29-.83,10.35,10.35,0,0,1-6.34-3.59.5.5,0,0,1-.13-.4.47.47,0,0,1,.23-.36l1.91-1.18c12.94-8,23.16-14.27,32-19.35,7.62-4.35,16.52-9.08,24.42-13a.49.49,0,0,1,.57.09,28.9,28.9,0,0,1,5.23,7.47.49.49,0,0,1-.19.65c-14.37,8.57-32.91,18.56-46.45,25.86l-7.2,3.88-1,.56-.29.17A.54.54,0,0,1,271.76,216.15ZM264,211.43a9.12,9.12,0,0,0,5.39,2.85,8.89,8.89,0,0,1,2.33.8l.05,0,1-.57,7.19-3.89c13.41-7.22,31.72-17.09,46-25.58a28.77,28.77,0,0,0-4.58-6.55c-7.8,3.85-16.54,8.5-24,12.79-8.87,5.07-19.08,11.36-32,19.33Z" style="fill:#263238"></path><path d="M232.3,288.15c15.76-14.83,43.57-19.47,77.87-37.08,13.67-7,24.39-12.42,32-16.55a34.07,34.07,0,0,0-2.69-6c-.28-.5-.53-1-.79-1.44-21.83,7.82-60.63,25.49-86,38.83-14.9,7.84-28.79,18-39.87,27.12a39.22,39.22,0,0,1,9.7,4.29Q227.13,293,232.3,288.15Z" style="fill:#fff"></path><path d="M222.52,297.81a.59.59,0,0,1-.26-.07,38.77,38.77,0,0,0-9.58-4.24.5.5,0,0,1-.35-.38.51.51,0,0,1,.17-.49,239.84,239.84,0,0,1,40-27.17c26.37-13.88,65-31.31,86-38.86a.51.51,0,0,1,.61.23l.79,1.44a35,35,0,0,1,2.73,6.09.52.52,0,0,1-.24.6c-5.67,3.08-12.94,6.79-22.14,11.5l-9.87,5c-14.19,7.29-27.28,12.37-38.84,16.84-16.61,6.44-29.73,11.53-38.91,20.16h0q-5.17,4.88-9.78,9.16A.49.49,0,0,1,222.52,297.81Zm-8.66-5a40.25,40.25,0,0,1,8.6,3.88q4.47-4.17,9.5-8.9h0c9.32-8.78,22.52-13.89,39.23-20.37,11.53-4.47,24.6-9.53,38.75-16.8l9.87-5.05c9-4.6,16.14-8.26,21.75-11.29a35.53,35.53,0,0,0-2.53-5.53l-.58-1.06c-21.13,7.61-59.36,24.88-85.52,38.65A238.46,238.46,0,0,0,213.86,292.81Zm18.44-4.66h0Z" style="fill:#263238"></path><path d="M246.93,295.17a2,2,0,0,1-1.53-.72,2,2,0,0,1,.25-2.81,32.17,32.17,0,0,1,9.57-5.34,2,2,0,0,1,1.17,3.82,28.31,28.31,0,0,0-8.18,4.59A2,2,0,0,1,246.93,295.17Z" style="fill:#AEB5ED"></path><path d="M281.32,276.48a2,2,0,0,1,2.66-2.66,32.19,32.19,0,0,1,8.89,6.39,2,2,0,0,1-3,2.69,27.91,27.91,0,0,0-7.63-5.46A2,2,0,0,1,281.32,276.48Z" style="fill:#AEB5ED"></path><path d="M300.74,269.63a2,2,0,0,1-1.51-.77,2,2,0,0,1,.35-2.8,31.77,31.77,0,0,1,9.74-5,2,2,0,1,1,1,3.86,28.05,28.05,0,0,0-8.33,4.31A2,2,0,0,1,300.74,269.63Z" style="fill:#fff"></path><path d="M191.25,284.79a2,2,0,0,1,3.41-1.57,31.77,31.77,0,0,1,6.12,9.08,2,2,0,0,1-3.71,1.49,28.41,28.41,0,0,0-5.25-7.77A2,2,0,0,1,191.25,284.79Z" style="fill:#fff"></path><path d="M324.91,202.63a2,2,0,0,1,.59-1.59,2,2,0,0,1,2.83,0,32,32,0,0,1,6.12,9.08,2,2,0,1,1-3.71,1.49,27.92,27.92,0,0,0-5.26-7.77A2,2,0,0,1,324.91,202.63Z" style="fill:#fff"></path><path d="M201,225.41a2,2,0,0,1,3.41-1.57,32.11,32.11,0,0,1,6.12,9.09,2,2,0,0,1-3.71,1.49,27.92,27.92,0,0,0-5.26-7.77A2,2,0,0,1,201,225.41Z" style="fill:#fff"></path><path d="M178.3,193.88a2,2,0,0,1,3.41-1.57,32.28,32.28,0,0,1,6.12,9.09,2,2,0,0,1-3.71,1.49,27.92,27.92,0,0,0-5.26-7.77A2,2,0,0,1,178.3,193.88Z" style="fill:#fff"></path><path d="M218.59,274.07a2,2,0,0,1-1.16-3.57,31.77,31.77,0,0,1,9.74-5,2,2,0,1,1,1,3.86,28.05,28.05,0,0,0-8.33,4.31A2,2,0,0,1,218.59,274.07Z" style="fill:#fff"></path><path d="M267.09,186.94a2,2,0,0,1,.09-1.69,2,2,0,0,1,2.7-.83,32.16,32.16,0,0,1,8.55,6.86,2,2,0,1,1-3.1,2.52A28,28,0,0,0,268,188,2,2,0,0,1,267.09,186.94Z" style="fill:#fff"></path><path d="M297.56,166.91a2,2,0,0,1-1.16-3.57,32,32,0,0,1,9.74-5,2,2,0,0,1,2.45,1.41,2,2,0,0,1-1.41,2.45,28,28,0,0,0-8.33,4.32A2,2,0,0,1,297.56,166.91Z" style="fill:#fff"></path><path d="M204.75,204.66a2,2,0,0,1-1.16-3.57,31.77,31.77,0,0,1,9.74-5,2,2,0,1,1,1,3.86,28.05,28.05,0,0,0-8.33,4.31A1.94,1.94,0,0,1,204.75,204.66Z" style="fill:#fff"></path><path d="M237.07,261a2,2,0,0,1,2.65-2.66,31.85,31.85,0,0,1,8.9,6.39,2,2,0,1,1-3,2.68,28.15,28.15,0,0,0-7.64-5.45A2.05,2.05,0,0,1,237.07,261Z" style="fill:#AEB5ED"></path><path d="M307.67,222.76a2,2,0,0,1,0-1.7,2,2,0,0,1,2.66-1,31.72,31.72,0,0,1,8.89,6.39,2,2,0,1,1-3,2.68,28,28,0,0,0-7.63-5.45A2,2,0,0,1,307.67,222.76Z" style="fill:#AEB5ED"></path><path d="M307.71,191.19a2,2,0,0,1-3.19-2,31.91,31.91,0,0,1,4.23-10.11,2,2,0,1,1,3.28,2.28,28.2,28.2,0,0,0-3.6,8.66A2,2,0,0,1,307.71,191.19Z" style="fill:#AEB5ED"></path><path d="M236.22,200.51a2,2,0,0,1-1.66.38,2,2,0,0,1-1.53-2.37,32,32,0,0,1,4.22-10.1,2,2,0,1,1,3.28,2.28,28.05,28.05,0,0,0-3.59,8.66A2.07,2.07,0,0,1,236.22,200.51Z" style="fill:#AEB5ED"></path><path d="M179.82,243.14a2,2,0,0,1-3.19-2,31.9,31.9,0,0,1,4.23-10.1,2,2,0,0,1,3.28,2.28,28.2,28.2,0,0,0-3.6,8.66A2,2,0,0,1,179.82,243.14Z" style="fill:#AEB5ED"></path><path d="M273.2,164.33a2,2,0,0,1,2.65-2.66,32.17,32.17,0,0,1,8.9,6.39,2,2,0,1,1-3,2.69,28.16,28.16,0,0,0-7.63-5.46A2,2,0,0,1,273.2,164.33Z" style="fill:#AEB5ED"></path><path d="M227.89,160.16a2,2,0,0,1,2.65-2.66,32.17,32.17,0,0,1,8.9,6.39,2,2,0,1,1-3,2.69,28.41,28.41,0,0,0-7.63-5.46A2,2,0,0,1,227.89,160.16Z" style="fill:#AEB5ED"></path><path d="M317.44,257a2,2,0,0,1,0-1.7,2,2,0,0,1,2.66-1,31.72,31.72,0,0,1,8.89,6.39,2,2,0,0,1-3,2.69,27.91,27.91,0,0,0-7.63-5.46A2,2,0,0,1,317.44,257Z" style="fill:#AEB5ED"></path><path d="M287.62,234.43a2,2,0,0,1,1.69,0,2,2,0,0,1,1,2.63,31.59,31.59,0,0,1-6.19,9,2,2,0,0,1-2.83-.08,2,2,0,0,1,.08-2.82,28.35,28.35,0,0,0,5.29-7.75A2,2,0,0,1,287.62,234.43Z" style="fill:#AEB5ED"></path><path d="M204.73,173.14a2,2,0,0,1,2.72,2.59,32.11,32.11,0,0,1-6.2,9,2,2,0,0,1-2.75-2.9,28.35,28.35,0,0,0,5.29-7.75A2,2,0,0,1,204.73,173.14Z" style="fill:#AEB5ED"></path><path d="M279.18,294.38A2,2,0,0,1,281.9,297a32.11,32.11,0,0,1-6.2,9,2,2,0,0,1-2.75-2.9,28.35,28.35,0,0,0,5.29-7.75A2,2,0,0,1,279.18,294.38Z" style="fill:#AEB5ED"></path><path d="M249.79,132.18h-1.3A97.37,97.37,0,0,0,159.75,269.5l90-42.85Z" style="fill:#fff"></path></g><g id="freepik--Fork--inject-82"><path d="M261.86,123.91c5.1-7.56,7.53-13,8.69-18.36h0l0-.18c.07-.34.14-.68.2-1s.09-.5.13-.75l.15-1c0-.26.07-.51.1-.77s.07-.68.11-1,.05-.54.07-.81,0-.68.07-1,0-.58.05-.87,0-.67,0-1l0-1,0-1c0-.4,0-.82,0-1.23s0-.54,0-.81c0-.7,0-1.41,0-2.14,0-.13,0-.29,0-.47v0h0c0-.08,0-.18,0-.27s0-.2,0-.31v-.1c0-.12,0-.25,0-.37s0-.2,0-.3v-.14c0-.16,0-.33,0-.5s0-.18,0-.27h0c-.25-4.22-.83-11.43-1.19-14.77-.68-6.33-1.85-24.06-5.32-29h-.08V97.65a1.95,1.95,0,0,1-3.86,0V62.21a59.24,59.24,0,0,0-2.74-17.82l-.51,2.26a59.63,59.63,0,0,0-1.45,13v38a1.94,1.94,0,0,1-3.85,0V61.37a59.46,59.46,0,0,0-2.27-16.24l-.21-.74-.38,1.48a59.07,59.07,0,0,0-1.85,14.68v37.1a1.94,1.94,0,0,1-3.85,0V44.39c-3.38,4.83-4.61,22.68-5.29,28.56-.41,3.56-1,10.92-1.23,15.22h0c0,.1,0,.19,0,.29s0,.28,0,.42v.19c0,.1,0,.19,0,.29s0,.24,0,.36v.13c0,.11,0,.2,0,.31a2.09,2.09,0,0,1,0,.25h0V91c0,11.5-1.15,21.4,8.13,32.73a24.67,24.67,0,0,1,4.86,14.63c0,14.32-.51,43.66-2,62.29-.71,8.57-1.95,17.24-3.09,24.12h0c-.23,1.39-.46,2.71-.68,3.95l0,.18c-.19,1.06-.36,2.05-.53,3-.05.23-.09.46-.13.68l-.09.5c-.08.38-.15.76-.22,1.11v0a9.46,9.46,0,0,0-.17,2.05c0,.35,0,.69.08,1a9.54,9.54,0,0,0,.48,2,9.86,9.86,0,0,0,1.49,2.69h0a9.63,9.63,0,0,0,5.39,3.42,9.74,9.74,0,0,0,2.16.25h1.9a9.59,9.59,0,0,0,7.55-3.67,10.06,10.06,0,0,0,1.1-1.75,8.47,8.47,0,0,0,.39-.94,9.71,9.71,0,0,0,.4-5.05c-.07-.35-.15-.74-.22-1.13l-.08-.41-.15-.84c-.07-.37-.14-.76-.21-1.15,0-.14-.05-.27-.08-.4q-.09-.49-.18-1v-.07c-.13-.74-.27-1.53-.41-2.34h0c-.07-.41-.14-.84-.21-1.27h0c-1.18-7-2.49-16-3.22-24.89-1.53-18.63-2.81-48-2-62.29C258,127.78,260.65,125.89,261.86,123.91Z" style="opacity:0.30000000000000004"></path><path d="M254.78,136.4c.56-10.52,3.2-12.42,4.41-14.39,9.35-13.85,9.75-20.49,9.75-33,0-2.4-.85-13.23-1.31-17.54-.68-6.33-1.85-24.06-5.32-29h-.08V95.74a1.95,1.95,0,0,1-3.86,0V60.3a59.12,59.12,0,0,0-2.74-17.81h0l-.51,2.26a59.5,59.5,0,0,0-1.45,13V95.74a1.95,1.95,0,0,1-3.86,0V59.47a59.1,59.1,0,0,0-2.27-16.25l-.2-.73L247,44a59.13,59.13,0,0,0-1.85,14.68v37.1a1.94,1.94,0,0,1-3.85,0V42.49C237.88,47.31,236.65,65.17,236,71c-.53,4.59-1.34,15.47-1.34,18,0,11.5-1.14,21.41,8.14,32.73a24.67,24.67,0,0,1,4.86,14.63c0,14.32-.51,43.66-2,62.3a337.45,337.45,0,0,1-4.77,33.52A9.61,9.61,0,0,0,242.7,240h0a9.6,9.6,0,0,0,7.55,3.67h1.9A9.59,9.59,0,0,0,259.7,240h0a9.62,9.62,0,0,0,1.89-7.74,331.55,331.55,0,0,1-4.77-33.52C255.29,180.06,254,150.7,254.78,136.4Z" style="fill:#d9d9d9"></path><path d="M252.15,244.13h-1.9a10.1,10.1,0,0,1-9.92-12,336.25,336.25,0,0,0,4.76-33.47c1.5-18.22,2-47.21,2-62.26a24.38,24.38,0,0,0-4.75-14.31c-8.46-10.34-8.37-19.72-8.27-29.65,0-1.12,0-2.25,0-3.4,0-2.52.82-13.49,1.35-18.05.1-.92.22-2.12.36-3.51.78-7.89,2.08-21.1,5-25.28a.5.5,0,0,1,.91.29V95.74a1.45,1.45,0,0,0,2.85,0V58.64a59.56,59.56,0,0,1,1.87-14.8l.37-1.48a.49.49,0,0,1,.48-.37.52.52,0,0,1,.49.36l.21.73a59.78,59.78,0,0,1,2.29,16.39V95.74a1.45,1.45,0,0,0,2.85,0V57.79a59.89,59.89,0,0,1,1.46-13.15l.51-2.26a.5.5,0,0,1,.47-.39.48.48,0,0,1,.5.35,59.8,59.8,0,0,1,2.76,18V95.74a1.45,1.45,0,0,0,2.86,0V42.49a.5.5,0,0,1,.5-.5.67.67,0,0,1,.49.21c3,4.36,4.32,17.86,5.08,25.93.12,1.29.23,2.41.33,3.31.44,4.15,1.31,15.13,1.31,17.6,0,12.61-.42,19.29-9.84,33.25-.18.29-.4.59-.64.93-1.28,1.76-3.21,4.42-3.68,13.21h0c-.75,14,.47,43.19,2,62.23a330.38,330.38,0,0,0,4.76,33.47,10.1,10.1,0,0,1-9.93,12ZM240.76,44.52c-2.17,5.28-3.29,16.62-3.93,23.06-.14,1.4-.25,2.61-.36,3.52-.52,4.55-1.34,15.44-1.34,17.94,0,1.15,0,2.29,0,3.41-.1,10.17-.19,19,8,29a25,25,0,0,1,5,15c0,15.07-.55,44.09-2,62.34a334,334,0,0,1-4.78,33.58,9.11,9.11,0,0,0,8.94,10.81h1.9a9.1,9.1,0,0,0,8.94-10.81,337.46,337.46,0,0,1-4.77-33.58c-1.57-19.07-2.79-48.34-2-62.36.48-9.09,2.52-11.89,3.87-13.75a10.16,10.16,0,0,0,.61-.89c9.27-13.72,9.68-20.3,9.68-32.7,0-2.44-.87-13.36-1.31-17.49-.09-.9-.2-2-.32-3.33-.63-6.7-1.75-18.6-4.08-23.93V95.74a2.44,2.44,0,0,1-4.86,0V60.3a58.75,58.75,0,0,0-2.17-15.83l-.09.38a58.66,58.66,0,0,0-1.44,12.94V95.74a2.44,2.44,0,0,1-4.85,0V59.47a58.81,58.81,0,0,0-2-15,58.78,58.78,0,0,0-1.75,14.22v37.1a2.44,2.44,0,0,1-4.85,0Zm14,91.88h0Z" style="fill:#263238"></path><path d="M267.89,103.64c1-4.48,1.05-8.94,1.05-14.6,0-.13,0-.29,0-.46v0c0-.17,0-.37,0-.59v-.06c0-.22,0-.46,0-.71v-.06c0-.27,0-.55-.05-.85h-6.59v9.48a1.95,1.95,0,0,1-3.86,0V86.26h-4.7v9.48a1.95,1.95,0,0,1-3.86,0V86.26h-4.7v9.48a1.94,1.94,0,0,1-3.85,0V86.26h-6.52c0,.29,0,.56,0,.82v.09q0,.36,0,.69v.08c0,.21,0,.4,0,.58v0c0,.18,0,.34,0,.47a84.9,84.9,0,0,0,1.1,14.85A37.7,37.7,0,0,0,267.89,103.64Z" style="fill:#263238"></path><path d="M251.55,107.85a38,38,0,0,1-16-3.51.51.51,0,0,1-.28-.36A84.92,84.92,0,0,1,234.13,89c0-.14,0-.3,0-.48l.1-2.33a.51.51,0,0,1,.5-.47h6.52a.47.47,0,0,1,.35.15.51.51,0,0,1,.15.35v9.48a1.45,1.45,0,0,0,2.85,0V86.26a.5.5,0,0,1,.5-.5h4.71a.5.5,0,0,1,.5.5v9.48a1.45,1.45,0,0,0,2.85,0V86.26a.5.5,0,0,1,.5-.5h4.7a.5.5,0,0,1,.5.5v9.48a1.45,1.45,0,0,0,2.86,0V86.26a.5.5,0,0,1,.5-.5h6.59a.51.51,0,0,1,.5.47l.11,2.29c0,.22,0,.39,0,.52,0,5.54-.08,10.14-1.06,14.7a.5.5,0,0,1-.28.35A38.62,38.62,0,0,1,251.55,107.85Zm-15.38-4.3a37.37,37.37,0,0,0,31.28-.26,69.68,69.68,0,0,0,1-14.25c0-.13,0-.28,0-.45l-.08-1.83h-5.62v9a2.44,2.44,0,0,1-4.86,0v-9h-3.7v9a2.44,2.44,0,0,1-4.85,0v-9h-3.71v9a2.44,2.44,0,0,1-4.85,0v-9h-5.54l-.08,1.77c0,.22,0,.38,0,.51A84.77,84.77,0,0,0,236.17,103.55Zm31.72.09h0Z" style="fill:#263238"></path></g><g id="freepik--Knife--inject-82"><path d="M292.08,217.23a9.5,9.5,0,0,0-.8-3.18l-.76-1.73a9.61,9.61,0,0,0-6.41-5.43c-.34-.08-.68-.15-1-.2a9.52,9.52,0,0,0-3.06.05,8.9,8.9,0,0,0-1,.24,9.53,9.53,0,0,0-2.77,1.32l-.06,0-.88.61-.37.25-.64.44-1,.7-.33.22-.85.58-.06,0-3.06,2h0c-5.91,3.9-13.62,8.74-21.46,13-9.65,5.25-22.72,11.92-34.58,17.55l-14,6.41h0L189,254.7h0L113.9,289s-13.15,6.2-1.64,11.19c0,0,11.55,4.2,39.65-5.9,16-5.76,38.85-15.62,41.3-17.1a5.74,5.74,0,0,0,3.25-4.92c.26-2.05-.77-10.52,4.53-15.19l.44-.38c14.25-6.13,35.77-15,50.65-20.2,8.12-2.82,16.55-5.19,23.3-6.93h0l3.89-1,.17,0,2.91-.7.74-.18.43-.1,1.15-.27a9.61,9.61,0,0,0,7.41-10.06Z" style="opacity:0.30000000000000004"></path><path d="M274.74,206.39A335,335,0,0,1,246,224.31c-9.66,5.25-22.73,11.92-34.59,17.56l-99,45.21s-13.15,6.2-1.64,11.19c0,0,11.55,4.2,39.66-5.9,16-5.76,38.84-15.62,41.3-17.09a5.78,5.78,0,0,0,3.25-4.93c.25-2.05-.78-10.52,4.53-15.19l.44-.37c14.24-6.14,35.76-15,50.64-20.21a337,337,0,0,1,32.59-9.2,9.58,9.58,0,0,0,6.32-4.85h0a9.62,9.62,0,0,0,.3-8.39l-.77-1.73a9.62,9.62,0,0,0-14.25-4Z" style="fill:#d9d9d9"></path><path d="M118.36,299.66a24.75,24.75,0,0,1-7.8-.92c-3.33-1.44-5-3.15-5-5.1-.06-3.8,6.38-6.88,6.65-7l99.06-45.22c11.3-5.37,24.54-12.09,34.55-17.54A332.53,332.53,0,0,0,274.46,206h0a10.11,10.11,0,0,1,15,4.23l.77,1.73a10.1,10.1,0,0,1-7,13.93,335.3,335.3,0,0,0-32.54,9.19c-14.25,4.95-35.44,13.65-50.54,20.16l-.37.32c-4.21,3.71-4.27,9.89-4.31,13.21a14.55,14.55,0,0,1-.06,1.66,6.24,6.24,0,0,1-3.49,5.3c-2.49,1.49-25.31,11.36-41.38,17.13C135.13,298.39,124.69,299.66,118.36,299.66ZM275,206.8a333.85,333.85,0,0,1-28.78,17.95c-10,5.45-23.29,12.19-34.61,17.57l-99.06,45.21c-1.7.81-6.11,3.47-6.07,6.1,0,1.51,1.51,2.92,4.42,4.19.09,0,11.75,4,39.29-5.92,16-5.76,38.74-15.57,41.21-17a5.27,5.27,0,0,0,3-4.56,15.2,15.2,0,0,0,.05-1.55c0-3.23.1-9.95,4.65-14l.45-.39a.47.47,0,0,1,.12-.07c15.12-6.52,36.37-15.25,50.68-20.22A334.82,334.82,0,0,1,283,224.9a9.11,9.11,0,0,0,6.27-12.55l-.77-1.74A9.1,9.1,0,0,0,275,206.8Zm-.29-.41h0Z" style="fill:#263238"></path><path d="M197.38,248.28l-9.89,4.51A49.5,49.5,0,0,1,194.15,273a6.74,6.74,0,0,0,.79-2.65c.25-2.05-.78-10.52,4.53-15.19l.44-.37.29-.13Z" style="fill:#263238"></path><path d="M194.15,273.5H194a.51.51,0,0,1-.39-.45,48.87,48.87,0,0,0-6.59-20,.53.53,0,0,1-.05-.41.5.5,0,0,1,.27-.3l9.89-4.52a.5.5,0,0,1,.67.26l2.82,6.38a.5.5,0,0,1-.26.66l-.23.1-.37.32c-4.21,3.71-4.27,9.89-4.31,13.21a14.55,14.55,0,0,1-.06,1.66,7.14,7.14,0,0,1-.85,2.84A.48.48,0,0,1,194.15,273.5Zm-6-20.48a50.33,50.33,0,0,1,6.18,17.69q0-.19.06-.42a15.2,15.2,0,0,0,.05-1.55c0-3.23.1-9.95,4.65-14l.41-.36-2.42-5.49Z" style="fill:#263238"></path></g><g id="freepik--Text--inject-82"><path d="M118.46,433.38V389.06h9.79v37.7h10.17v6.62Z" style="fill:#263238"></path><path d="M154.62,434a15.93,15.93,0,0,1-8-1.67,8.93,8.93,0,0,1-4-4.87,23.31,23.31,0,0,1-1.15-7.85V389.06h9.68v32.06a16.78,16.78,0,0,0,.22,2.74,4.46,4.46,0,0,0,1,2.24,3.41,3.41,0,0,0,4.57,0,4.5,4.5,0,0,0,.9-2.24,19.31,19.31,0,0,0,.19-2.74V389.06h9.74v30.59a22.77,22.77,0,0,1-1.18,7.85,9.1,9.1,0,0,1-4,4.87A15.78,15.78,0,0,1,154.62,434Z" style="fill:#263238"></path><path d="M174,433.38V389.06h6.9L190,410.4V389.06h8.1v44.32h-6.62l-9.09-23v23Z" style="fill:#263238"></path><path d="M217.37,434a14.91,14.91,0,0,1-8-1.84,9.84,9.84,0,0,1-4.13-5.14,22.66,22.66,0,0,1-1.21-7.8v-16a23,23,0,0,1,1.21-7.91,9.73,9.73,0,0,1,4.13-5.11,15,15,0,0,1,8-1.81,15.23,15.23,0,0,1,7.68,1.62,8.93,8.93,0,0,1,3.92,4.51,18.14,18.14,0,0,1,1.14,6.67v3.83h-9.57v-4.43a22.48,22.48,0,0,0-.14-2.51,3.67,3.67,0,0,0-.79-2,2.77,2.77,0,0,0-2.24-.79,2.89,2.89,0,0,0-2.27.82,3.74,3.74,0,0,0-.93,2.05,16.65,16.65,0,0,0-.19,2.6v20.84a14.23,14.23,0,0,0,.24,2.71,3.73,3.73,0,0,0,1,2,2.93,2.93,0,0,0,2.16.74,2.7,2.7,0,0,0,2.19-.8,4,4,0,0,0,.82-2.05,19.7,19.7,0,0,0,.16-2.57V417h9.57v3.83a19.05,19.05,0,0,1-1.12,6.76,9.3,9.3,0,0,1-3.88,4.7Q222.35,434,217.37,434Z" style="fill:#263238"></path><path d="M235.64,433.38V389.06h9.79V407h6.84V389.06h9.85v44.32h-9.85V414h-6.84v19.37Z" style="fill:#263238"></path><path d="M286.84,433.38v-37h-6.67v-7.28h23.14v7.28h-6.62v37Z" style="fill:#263238"></path><path d="M307.25,433.38V389.06H317v44.32Z" style="fill:#263238"></path><path d="M323.5,433.38l.76-44.32h10.51l4.87,25.77,5.25-25.77H355l.77,44.32h-6.95L348,403.89l-5.15,29.49h-6.18l-5.47-29.71-.65,29.71Z" style="fill:#263238"></path><path d="M361.52,433.38V389.06h19.91v6.68H371.31v11H379v6.78h-7.72v13.24h10.23v6.62Z" style="fill:#263238"></path></g></svg>