<svg xmlns="http://www.w3.org/2000/svg" viewBox="0 0 500 500"><g id="freepik--background-complete--inject-2"><path d="M81.52,188.8a1.35,1.35,0,0,1,0-.24v-.66c0-.6,0-1.45,0-2.53,0-2.22,0-5.42-.08-9.44l.15.15-48.65.09.24-.24h0V188.8l-.24-.25,34.67.11,10.23.07,2.77,0,.72,0,.26,0h-.23l-.69,0-2.72,0-10.17.07L32.87,189h-.25V176h0l.25-.25,48.65.09h.15v.16c0,4.06-.07,7.29-.08,9.53,0,1.07,0,1.9,0,2.5l0,.63A1.66,1.66,0,0,1,81.52,188.8Z" style="fill:#e0e0e0"></path><path d="M88.11,175.93s0-.09,0-.25,0-.41,0-.68c0-.64,0-1.5,0-2.58,0-2.26,0-5.45-.09-9.37l.17.18-29.23.07c-.22.22.3-.3.25-.24h0v6.6q0,3.24,0,6.24l-.24-.23,20.91.11,6.09.07,1.65,0,.58,0-.53,0L86,176l-6,.07-21.07.11h-.23v-.24q0-3,0-6.24c0-1.07,0-2.17,0-3.27v-3.33h0l.25-.25,29.23.07h.18v.17c0,4-.07,7.19-.09,9.48,0,1.07,0,1.91,0,2.54A5,5,0,0,1,88.11,175.93Z" style="fill:#e0e0e0"></path><path d="M228.85,72.58a1,1,0,0,1,0-.23l0-.66c0-.61,0-1.45,0-2.54,0-2.22-.05-5.41-.09-9.44l.16.15L180.2,60c.11-.11-.25.25.24-.25h0V72.58l-.25-.24,34.67.11,10.24.07,2.77,0,.72,0h.26a1,1,0,0,1-.23,0h-.69l-2.72,0L215,72.71l-34.84.11H180V63c0-.54,0-1.09,0-1.64V59.73h0l.26-.25,48.65.1H229v.15c0,4.07-.07,7.29-.09,9.53,0,1.07,0,1.91,0,2.5l0,.64A1.23,1.23,0,0,1,228.85,72.58Z" style="fill:#e0e0e0"></path><path d="M235.44,59.71s0-.09,0-.24,0-.41,0-.69c0-.63,0-1.49,0-2.58,0-2.25-.06-5.44-.1-9.36l.18.18-29.23.07.25-.25h0v3.33c0,1.11,0,2.2,0,3.28v6.24l-.24-.24,20.91.12,6.09.06,1.64,0,.59,0a3.28,3.28,0,0,1-.53,0l-1.59,0-6,.06L206.21,60H206v-.24c0-2,0-4.09,0-6.24V46.86h0l.25-.25,29.23.07h.18v.18c0,4-.07,7.19-.1,9.47,0,1.07,0,1.92,0,2.54A6.65,6.65,0,0,1,235.44,59.71Z" style="fill:#e0e0e0"></path><polygon points="183.43 49.05 183.43 132.87 63.05 132.87 58.71 49.64 183.43 49.05" style="fill:#e0e0e0"></polygon><rect x="77.38" y="30.97" width="83.05" height="120.38" transform="translate(27.74 210.07) rotate(-90)" style="fill:#fff"></rect><path d="M179.67,133.26H58.14V49.06H179.67ZM59.28,132.12H178.53V50.21H59.28Z" style="fill:#e0e0e0"></path><rect x="71.75" y="59.95" width="94.31" height="62.42" style="fill:#fff"></rect><path d="M166.06,60a4.24,4.24,0,0,1-.47,0l-1.34,0-5.18,0-19.43.07-67.89.14L72,60c0,19.07,0,40.2,0,62.41h0l-.3-.3,94.31.06-.24.24c.05-19,.1-34.57.13-45.41,0-5.42,0-9.66.06-12.56,0-1.43,0-2.54,0-3.3s0-1.15,0-1.15,0,.37,0,1.1,0,1.84,0,3.26c0,2.89,0,7.1.06,12.5,0,10.88.07,26.5.12,45.56v.24h-.24l-94.31.06h-.3v-.3h0c0-22.21,0-43.34,0-62.41v-.27h.27l68.07.14,19.37.07,5.12,0,1.31,0Z" style="fill:#e0e0e0"></path><path d="M58.71,49.4a10.29,10.29,0,0,1,2.07,1.34c1.23.89,2.91,2.15,4.72,3.6s3.4,2.82,4.53,3.85A10.06,10.06,0,0,1,71.75,60c-.11.13-3-2.26-6.62-5.14S58.61,49.54,58.71,49.4Z" style="fill:#e0e0e0"></path><path d="M179.1,49.64A60.52,60.52,0,0,1,172.76,55a57.88,57.88,0,0,1-6.7,4.92,59.72,59.72,0,0,1,6.33-5.39C176,51.71,179,49.51,179.1,49.64Z" style="fill:#e0e0e0"></path><path d="M179,132.7l-13.42-10.88" style="fill:#fff"></path><path d="M165.58,121.82a65.78,65.78,0,0,1,6.9,5.21A64.51,64.51,0,0,1,179,132.7a62.55,62.55,0,0,1-6.9-5.21C168.4,124.49,165.47,122,165.58,121.82Z" style="fill:#e0e0e0"></path><path d="M58.71,132.69A57.78,57.78,0,0,1,65,127.35a56.47,56.47,0,0,1,6.64-4.87,57.78,57.78,0,0,1-6.27,5.34A56.47,56.47,0,0,1,58.71,132.69Z" style="fill:#e0e0e0"></path><rect x="110.12" y="60.18" width="20.9" height="59.34" transform="translate(30.72 210.42) rotate(-90)" style="fill:#e0e0e0"></rect><polygon points="302.04 442.18 302.04 480.45 358 480.45 419.72 480.45 419.72 442.18 302.04 442.18" style="fill:#f5f5f5"></polygon><polygon points="297.1 431.48 297.1 442.18 423.83 442.18 423.83 431.48 358 431.48 297.1 431.48" style="fill:#e0e0e0"></polygon><polygon points="360.47 480.45 419.72 480.45 419.72 442.18 423.83 442.18 423.83 431.48 358 431.48 358 441.19 360.47 480.45" style="fill:#e0e0e0"></polygon><rect x="318.5" y="448.35" width="23.87" height="5.76" style="fill:#e0e0e0"></rect><rect x="315.43" y="461.31" width="30.64" height="12.16" style="fill:#fff"></rect><rect x="195.01" y="222.46" width="48.65" height="12.87" style="fill:#ebebeb"></rect><path d="M223.09,248.89a1.35,1.35,0,0,1,0-.24V248c0-.6,0-1.45,0-2.53,0-2.22-.05-5.42-.08-9.44l.15.15-48.65.09.24-.24h0v12.85l-.24-.24,34.67.11,10.23.06,2.77,0h.72l.26,0h-.23l-.69,0-2.72,0-10.17.07-34.84.11h-.25V236h0l.25-.25,48.65.1h.15V236c0,4.06-.06,7.29-.08,9.53,0,1.07,0,1.9,0,2.5,0,.26,0,.47,0,.63A1.66,1.66,0,0,1,223.09,248.89Z" style="fill:#e0e0e0"></path><rect x="430.75" y="145.7" width="48.65" height="12.87" style="fill:#ebebeb"></rect><path d="M458.83,172.13s0-.09,0-.24l0-.66c0-.6,0-1.45,0-2.53,0-2.22-.05-5.42-.08-9.44l.15.15-48.65.09.25-.24h0v3.29c0,1.09,0,2.17,0,3.25v6.33l-.24-.25,34.67.11,10.23.07,2.77,0,.72,0,.26,0h-.22l-.7,0-2.71,0-10.18.07-34.84.11h-.24v-.24c0-2.07,0-4.19,0-6.33v-6.54h0l.25-.25,48.65.09H459v.16c0,4.06-.06,7.29-.08,9.53,0,1.07,0,1.9,0,2.5,0,.26,0,.47,0,.63A.85.85,0,0,1,458.83,172.13Z" style="fill:#e0e0e0"></path></g><g id="freepik--Floor--inject-2"><path d="M473.7,481.69c0,.14-100.16.26-223.69.26s-223.71-.12-223.71-.26,100.14-.26,223.71-.26S473.7,481.54,473.7,481.69Z" style="fill:#263238"></path></g><g id="freepik--Device--inject-2"><rect x="256.59" y="29.43" width="195.56" height="387.26" rx="25.34" style="fill:#455a64"></rect><rect x="163.83" y="128.36" width="381.1" height="189.4" rx="22.23" transform="translate(577.43 -131.31) rotate(90)" style="fill:#263238"></rect><path d="M340.33,44.72a2.18,2.18,0,1,1,0-4.35h28a2.18,2.18,0,0,1,0,4.35Z" style="fill:#455a64"></path><path d="M325.33,44.72a2.18,2.18,0,1,1,2.18-2.18A2.18,2.18,0,0,1,325.33,44.72Z" style="fill:#455a64"></path><path d="M333.34,44.72a2.18,2.18,0,1,1,2.17-2.18A2.19,2.19,0,0,1,333.34,44.72Z" style="fill:#455a64"></path><path d="M383.42,44.72a2.18,2.18,0,1,1,2.17-2.18A2.19,2.19,0,0,1,383.42,44.72Z" style="fill:#455a64"></path><path d="M375.41,44.72a2.18,2.18,0,1,1,2.18-2.18A2.18,2.18,0,0,1,375.41,44.72Z" style="fill:#455a64"></path><path d="M427.86,34.71H400.4a9.78,9.78,0,0,0-9.38,7l-.47,1.6a10.46,10.46,0,0,1-10,7.55H328.24a10.47,10.47,0,0,1-10.05-7.55l-.46-1.6a9.78,9.78,0,0,0-9.39-7H283.43a19.35,19.35,0,0,0-19.35,19.35v335.8a18.2,18.2,0,0,0,18.2,18.2H428.19a16.47,16.47,0,0,0,16.48-16.47V51.52A16.82,16.82,0,0,0,427.86,34.71Z" style="fill:#fff"></path><path d="M453.22,113.6h.22a0,0,0,0,1,0,0v44.51a0,0,0,0,1,0,0h-.22a1.07,1.07,0,0,1-1.07-1.07V114.67A1.07,1.07,0,0,1,453.22,113.6Z" transform="translate(905.58 271.71) rotate(180)" style="fill:#455a64"></path><path d="M256.33,141h.26a0,0,0,0,1,0,0v28.18a0,0,0,0,1,0,0h-.26a1.07,1.07,0,0,1-1.07-1.07v-26A1.07,1.07,0,0,1,256.33,141Z" style="fill:#455a64"></path><path d="M256.33,104.21h.26a0,0,0,0,1,0,0v28.18a0,0,0,0,1,0,0h-.26a1.07,1.07,0,0,1-1.07-1.07v-26A1.07,1.07,0,0,1,256.33,104.21Z" style="fill:#455a64"></path><path d="M256.4,76.58h.2a0,0,0,0,1,0,0v13.1a0,0,0,0,1,0,0h-.2a.95.95,0,0,1-.95-.95V77.53A.95.95,0,0,1,256.4,76.58Z" style="fill:#455a64"></path><rect x="400.83" y="47.72" width="1.34" height="1.88" style="fill:#263238"></rect><rect x="403.01" y="46.88" width="1.34" height="2.72" style="fill:#263238"></rect><rect x="405.2" y="46.26" width="1.34" height="3.35" style="fill:#263238"></rect><rect x="407.39" y="45.04" width="1.34" height="4.57" style="fill:#263238"></rect><path d="M428.56,49.7h-6.74a.49.49,0,0,1-.49-.48V45.87a.49.49,0,0,1,.48-.49h6.75a.18.18,0,0,1,.09,0,.12.12,0,0,1,0,.09v1.1h.72a.13.13,0,0,1,.13.12v1.62a.12.12,0,0,1-.13.12h-.72v1.11A.12.12,0,0,1,428.56,49.7Zm-.12-4.07h-6.63a.23.23,0,0,0-.23.24v3.35a.23.23,0,0,0,.24.23h6.62v-1.1a.12.12,0,0,1,.12-.12h.72V46.86h-.72a.12.12,0,0,1-.12-.13Z" style="fill:#263238"></path><polygon points="422.13 48.9 422.13 46.18 427.89 46.18 427.89 47.41 427.89 47.68 427.89 48.9 422.13 48.9" style="fill:#263238"></polygon><path d="M415.16,49.44a.5.5,0,1,0-.49.5A.49.49,0,0,0,415.16,49.44Z" style="fill:#263238"></path><path d="M413,48.26l.63.62a1.54,1.54,0,0,1,1.06-.43,1.52,1.52,0,0,1,1.05.43l.63-.62a2.38,2.38,0,0,0-3.37,0Z" style="fill:#263238"></path><path d="M414.67,46.16A3.76,3.76,0,0,0,412,47.27l.63.62a2.91,2.91,0,0,1,4.09,0l.63-.62A3.76,3.76,0,0,0,414.67,46.16Z" style="fill:#263238"></path><path d="M411,46.24l.63.63a4.33,4.33,0,0,1,6.13,0l.63-.63a5.23,5.23,0,0,0-7.39,0Z" style="fill:#263238"></path><path d="M338.42,73.08v2.19h3.84v1.55h-3.84v3H336.5v-8.3h6.27v1.54Z" style="fill:#263238"></path><path d="M345,79.51a3.21,3.21,0,0,1-1.26-1.16,3.44,3.44,0,0,1,0-3.4A3.21,3.21,0,0,1,345,73.79a4.09,4.09,0,0,1,3.61,0A3.15,3.15,0,0,1,349.86,75a3.44,3.44,0,0,1,0,3.4,3.15,3.15,0,0,1-1.24,1.16,4,4,0,0,1-3.61,0Zm3-1.57a2,2,0,0,0,0-2.58,1.52,1.52,0,0,0-1.16-.48,1.57,1.57,0,0,0-1.18.48,2,2,0,0,0,0,2.58,1.57,1.57,0,0,0,1.18.48A1.52,1.52,0,0,0,348,77.94Z" style="fill:#263238"></path><path d="M352.77,79.51a3.18,3.18,0,0,1-1.25-1.16,3.44,3.44,0,0,1,0-3.4,3.18,3.18,0,0,1,1.25-1.16,3.86,3.86,0,0,1,1.81-.42,3.81,3.81,0,0,1,1.81.42A3.15,3.15,0,0,1,357.63,75a3.44,3.44,0,0,1,0,3.4,3.15,3.15,0,0,1-1.24,1.16,3.7,3.7,0,0,1-1.81.43A3.75,3.75,0,0,1,352.77,79.51Zm3-1.57a2,2,0,0,0,0-2.58,1.53,1.53,0,0,0-1.17-.48,1.56,1.56,0,0,0-1.17.48,2,2,0,0,0,0,2.58,1.56,1.56,0,0,0,1.17.48A1.53,1.53,0,0,0,355.75,77.94Z" style="fill:#263238"></path><path d="M365.81,71v8.8h-1.76v-.73a2.47,2.47,0,0,1-2,.83,3.32,3.32,0,0,1-1.63-.41,2.93,2.93,0,0,1-1.14-1.15,3.77,3.77,0,0,1,0-3.46,2.93,2.93,0,0,1,1.14-1.15,3.31,3.31,0,0,1,1.63-.4,2.39,2.39,0,0,1,1.91.77V71Zm-2.27,6.9a2,2,0,0,0,0-2.58,1.67,1.67,0,0,0-2.34,0,2,2,0,0,0,0,2.58,1.67,1.67,0,0,0,2.34,0Z" style="fill:#263238"></path><rect x="272.95" y="289.2" width="161.46" height="41.68" style="fill:#e0e0e0"></rect><path d="M285.51,308.15h-2.66v-1.56h7.24v1.56h-2.66v6.74h-1.92Z" style="fill:#263238"></path><path d="M292.69,314.47a4.12,4.12,0,0,1-1.62-1.53,4.24,4.24,0,0,1-.59-2.2,4.19,4.19,0,0,1,.59-2.2,4.07,4.07,0,0,1,1.62-1.54,5.13,5.13,0,0,1,4.66,0,4.28,4.28,0,0,1,1.62,5.94,4.19,4.19,0,0,1-1.62,1.53,5.13,5.13,0,0,1-4.66,0Zm3.66-1.41a2.36,2.36,0,0,0,.93-.95,3,3,0,0,0,0-2.75,2.34,2.34,0,0,0-.93-.94,2.77,2.77,0,0,0-2.66,0,2.47,2.47,0,0,0-.93.94,3,3,0,0,0,0,2.75,2.5,2.5,0,0,0,.93.95,2.85,2.85,0,0,0,2.66,0Z" style="fill:#263238"></path><path d="M302.61,308.15H300v-1.56h7.23v1.56h-2.66v6.74h-1.92Z" style="fill:#263238"></path><path d="M313.28,313.11h-3.86l-.73,1.78h-2l3.7-8.3h1.9l3.71,8.3h-2Zm-.61-1.46-1.32-3.18L310,311.65Z" style="fill:#263238"></path><path d="M316.89,306.59h1.93v6.73H323v1.57h-6.09Z" style="fill:#263238"></path><path d="M324,310.39a1.13,1.13,0,0,1-.33-.83,1.08,1.08,0,0,1,.33-.82,1.17,1.17,0,0,1,.82-.32,1.14,1.14,0,0,1,.82.32,1.08,1.08,0,0,1,.33.82,1.13,1.13,0,0,1-.33.83,1.11,1.11,0,0,1-.82.33A1.14,1.14,0,0,1,324,310.39Zm0,4.26a1.13,1.13,0,0,1-.33-.83A1.08,1.08,0,0,1,324,313a1.17,1.17,0,0,1,.82-.32,1.14,1.14,0,0,1,.82.32,1.08,1.08,0,0,1,.33.82,1.13,1.13,0,0,1-.33.83,1.11,1.11,0,0,1-.82.33A1.14,1.14,0,0,1,324,314.65Z" style="fill:#263238"></path><path d="M404.84,313.49a3.43,3.43,0,0,1-2,.86v1.33H401.6v-1.29a6.58,6.58,0,0,1-1.67-.31,4.13,4.13,0,0,1-1.28-.64l.65-1.45a4.24,4.24,0,0,0,1.06.56,4.77,4.77,0,0,0,1.24.29v-2a8.24,8.24,0,0,1-1.42-.45,2.42,2.42,0,0,1-1-.73,1.9,1.9,0,0,1-.4-1.27,2.28,2.28,0,0,1,.72-1.69,3.4,3.4,0,0,1,2.07-.86v-1.32h1.19v1.3a5.11,5.11,0,0,1,2.4.72L404.6,308a4.7,4.7,0,0,0-1.81-.62v2a8.08,8.08,0,0,1,1.4.43,2.4,2.4,0,0,1,1,.72,2,2,0,0,1,.39,1.27A2.25,2.25,0,0,1,404.84,313.49Zm-3.89-4.7a1.87,1.87,0,0,0,.65.32v-1.68a1.28,1.28,0,0,0-.66.33.76.76,0,0,0-.22.54A.62.62,0,0,0,401,308.79Zm2.48,3.69a.69.69,0,0,0,.21-.51.61.61,0,0,0-.22-.49,2.15,2.15,0,0,0-.63-.33v1.64A1.37,1.37,0,0,0,403.43,312.48Z" style="fill:#263238"></path><path d="M412.41,313.49a3.43,3.43,0,0,1-2.06.86v1.33h-1.18v-1.29a6.5,6.5,0,0,1-1.67-.31,4.31,4.31,0,0,1-1.29-.64l.66-1.45a4.35,4.35,0,0,0,1.05.56,4.94,4.94,0,0,0,1.25.29v-2a8.37,8.37,0,0,1-1.43-.45,2.49,2.49,0,0,1-1-.73,2,2,0,0,1-.39-1.27,2.28,2.28,0,0,1,.72-1.69,3.4,3.4,0,0,1,2.07-.86v-1.32h1.18v1.3a5.12,5.12,0,0,1,2.41.72l-.59,1.46a4.69,4.69,0,0,0-1.82-.62v2a7.94,7.94,0,0,1,1.41.43,2.54,2.54,0,0,1,1,.72,2,2,0,0,1,.39,1.27A2.25,2.25,0,0,1,412.41,313.49Zm-3.89-4.7a1.79,1.79,0,0,0,.65.32v-1.68a1.36,1.36,0,0,0-.67.33.8.8,0,0,0-.21.54A.59.59,0,0,0,408.52,308.79Zm2.47,3.69a.67.67,0,0,0,.22-.51.64.64,0,0,0-.22-.49,2.22,2.22,0,0,0-.64-.33v1.64A1.32,1.32,0,0,0,411,312.48Z" style="fill:#263238"></path><path d="M420,313.49a3.4,3.4,0,0,1-2.05.86v1.33h-1.19v-1.29a6.58,6.58,0,0,1-1.67-.31,4.25,4.25,0,0,1-1.28-.64l.65-1.45a4.43,4.43,0,0,0,1.06.56,4.86,4.86,0,0,0,1.24.29v-2a8.24,8.24,0,0,1-1.42-.45,2.42,2.42,0,0,1-1-.73,2,2,0,0,1-.39-1.27,2.28,2.28,0,0,1,.72-1.69,3.35,3.35,0,0,1,2.06-.86v-1.32h1.19v1.3a5.15,5.15,0,0,1,2.41.72l-.59,1.46a4.75,4.75,0,0,0-1.82-.62v2a8.5,8.5,0,0,1,1.41.43,2.44,2.44,0,0,1,1,.72,2,2,0,0,1,.39,1.27A2.22,2.22,0,0,1,420,313.49Zm-3.89-4.7a1.87,1.87,0,0,0,.65.32v-1.68a1.28,1.28,0,0,0-.66.33.8.8,0,0,0-.21.54A.61.61,0,0,0,416.08,308.79Zm2.48,3.69a.7.7,0,0,0,.22-.51.64.64,0,0,0-.22-.49,2.22,2.22,0,0,0-.64-.33v1.64A1.32,1.32,0,0,0,418.56,312.48Z" style="fill:#263238"></path><path d="M435.23,91.16c0,.14-37.12.26-82.9.26s-82.9-.12-82.9-.26,37.11-.27,82.9-.27S435.23,91,435.23,91.16Z" style="fill:#263238"></path><path d="M401.38,384.18H307.24a19.66,19.66,0,0,1-19.66-19.66h0a19.67,19.67,0,0,1,19.66-19.67h94.14a19.67,19.67,0,0,1,19.67,19.67h0A19.67,19.67,0,0,1,401.38,384.18Z" style="fill:#4C53A5"></path><path d="M332.54,369.87a4.23,4.23,0,0,1,0-7.47,4.86,4.86,0,0,1,2.33-.55,4.79,4.79,0,0,1,2.32.55,4.24,4.24,0,0,1,1.63,1.54,4.22,4.22,0,0,1-1.63,5.93,4.69,4.69,0,0,1-2.32.56A4.75,4.75,0,0,1,332.54,369.87Zm3.66-1.41a2.5,2.5,0,0,0,.93-.95,2.7,2.7,0,0,0,.34-1.37,2.74,2.74,0,0,0-.34-1.38,2.54,2.54,0,0,0-.93-.94,2.77,2.77,0,0,0-2.66,0,2.54,2.54,0,0,0-.93.94,2.85,2.85,0,0,0-.34,1.38,2.81,2.81,0,0,0,.34,1.37,2.5,2.5,0,0,0,.93.95,2.77,2.77,0,0,0,2.66,0Z" style="fill:#fff"></path><path d="M346.15,370.29l-1.6-2.31h-1.77v2.31h-1.92V362h3.59a4.7,4.7,0,0,1,1.92.36,2.77,2.77,0,0,1,1.69,2.65,2.71,2.71,0,0,1-1.71,2.62l1.86,2.67Zm-.49-6.36a2,2,0,0,0-1.31-.38h-1.57v2.9h1.57a2,2,0,0,0,1.31-.38,1.33,1.33,0,0,0,.45-1.07A1.31,1.31,0,0,0,345.66,363.93Z" style="fill:#fff"></path><path d="M349.58,362h3.77a5.35,5.35,0,0,1,2.39.51,3.87,3.87,0,0,1,1.61,1.46,4.39,4.39,0,0,1,0,4.36,3.78,3.78,0,0,1-1.61,1.45,5.22,5.22,0,0,1-2.39.52h-3.77Zm3.67,6.72a2.8,2.8,0,0,0,2-.69,2.76,2.76,0,0,0,0-3.76,2.81,2.81,0,0,0-2-.7H351.5v5.15Z" style="fill:#fff"></path><path d="M365.8,368.75v1.54h-6.43V362h6.28v1.54h-4.37v1.8h3.86v1.5h-3.86v1.92Z" style="fill:#fff"></path><path d="M372.62,370.29,371,368h-1.77v2.31h-1.92V362h3.59a4.7,4.7,0,0,1,1.92.36,2.85,2.85,0,0,1,0,5.27l1.86,2.67Zm-.49-6.36a2,2,0,0,0-1.31-.38h-1.57v2.9h1.57a2,2,0,0,0,1.31-.38,1.33,1.33,0,0,0,.45-1.07A1.31,1.31,0,0,0,372.13,363.93Z" style="fill:#fff"></path><rect x="271.91" y="98.12" width="56.05" height="54.91" style="fill:#ebebeb"></rect><path d="M271.91,98.12l.79,0H275l9.12,0,34.1-.08,117.2-.11h.25v.25c0,17.31,0,35.82,0,54.9h0v.26h-.26l-163.55-.09h-.17V153c0-17.24.07-31,.1-40.42,0-4.7,0-8.32,0-10.79,0-1.21,0-2.14,0-2.77s0-.93,0-.93,0,.33,0,1,0,1.58,0,2.81c0,2.47,0,6.11,0,10.82,0,9.42.06,23.12.1,40.32l-.18-.18,163.55-.08-.26.26h0V98.12l.26.25-117-.11-34.17-.08-9.16,0h-2.38Z" style="fill:#263238"></path><polygon points="312.24 124.62 310.42 133.55 316.35 133.42 312.24 124.62" style="fill:#4C53A5"></polygon><g style="opacity:0.30000000000000004"><polygon points="312.24 124.62 310.42 133.55 316.35 133.42 312.24 124.62"></polygon></g><polygon points="286.82 124.91 288.64 133.84 282.71 133.7 286.82 124.91" style="fill:#4C53A5"></polygon><g style="opacity:0.30000000000000004"><polygon points="286.82 124.91 288.64 133.84 282.71 133.7 286.82 124.91"></polygon></g><path d="M302,126.56h0a.75.75,0,0,1-.75-.71l-.86-20.92a.74.74,0,0,1,.75-.78h1a.75.75,0,0,1,.75.75l-.18,20.92A.75.75,0,0,1,302,126.56Z" style="fill:#844031"></path><rect x="300.48" y="106.82" width="2.47" height="1.82" style="fill:#4C53A5"></rect><path d="M303.7,126.64h0a.74.74,0,0,1-.45-.93l6.37-19.94a.74.74,0,0,1,1-.48l1,.36a.75.75,0,0,1,.44,1l-7.35,19.58A.74.74,0,0,1,303.7,126.64Z" style="fill:#844031"></path><rect x="308.98" y="107.61" width="1.82" height="2.47" transform="translate(101.25 362.52) rotate(-69.92)" style="fill:#4C53A5"></rect><path d="M310.82,121.33a4.93,4.93,0,0,0-3.44-2.18,7,7,0,0,0-4,.71c-1,.46-2,1.09-3,.88a5.82,5.82,0,0,1-2-1.12,7,7,0,0,0-5.33-1.08,7.66,7.66,0,0,0-4.62,3.19,5.11,5.11,0,0,0-.9,4.21l23.62-.09A5.08,5.08,0,0,0,310.82,121.33Z" style="fill:#fff"></path><path d="M310.19,125.32a5,5,0,0,0,0-1.16,4.3,4.3,0,0,0-1.33-2.79,3.37,3.37,0,0,0-1.95-.85,5.46,5.46,0,0,0-2.45.34c-.83.28-1.61.82-2.53,1.19a3.57,3.57,0,0,1-1.5.27,4,4,0,0,1-1.5-.41c-.95-.45-1.75-1.08-2.61-1.52a5,5,0,0,0-2.65-.59,5.36,5.36,0,0,0-4,2.18,7,7,0,0,0-1.25,2.89c-.07.37-.09.66-.11.86a1.16,1.16,0,0,1,0,.3,4.93,4.93,0,0,1,.06-1.17,6.83,6.83,0,0,1,1.21-3,5.49,5.49,0,0,1,4.08-2.28,5.26,5.26,0,0,1,2.76.6c.88.45,1.68,1.07,2.6,1.51a3.28,3.28,0,0,0,2.83.14c.89-.36,1.68-.89,2.55-1.18a5.64,5.64,0,0,1,2.53-.34,3.64,3.64,0,0,1,2,.92,4.27,4.27,0,0,1,1.31,2.89A3.17,3.17,0,0,1,310.19,125.32Z" style="fill:#263238"></path><path d="M309.07,125.6a6.75,6.75,0,0,0,0-1,3.17,3.17,0,0,0-1.3-2.33,2.54,2.54,0,0,0-1.78-.43,5.42,5.42,0,0,0-2,.85,8.65,8.65,0,0,1-2.21,1.12,4.2,4.2,0,0,1-2.65-.26c-1.7-.67-3.07-1.81-4.6-2.11a4,4,0,0,0-3.72,1.18,5.18,5.18,0,0,0-1.27,2.43c-.14.64-.12,1-.15,1a4.21,4.21,0,0,1,.07-1,5,5,0,0,1,1.25-2.51,4.11,4.11,0,0,1,3.86-1.27c1.59.31,3,1.46,4.64,2.11a4.08,4.08,0,0,0,2.52.25,8.57,8.57,0,0,0,2.16-1.08,5.54,5.54,0,0,1,2.07-.86,2.6,2.6,0,0,1,1.89.48,3.23,3.23,0,0,1,1.3,2.45A2.67,2.67,0,0,1,309.07,125.6Z" style="fill:#263238"></path><path d="M307.61,125.61a1.7,1.7,0,0,0-.13-.79,1.67,1.67,0,0,0-.6-.69,1.73,1.73,0,0,0-1.19-.18c-.94.14-1.77,1-3,1.41a5.6,5.6,0,0,1-4-.54,21.74,21.74,0,0,0-3.72-1.59,3.82,3.82,0,0,0-3.12.41,3.22,3.22,0,0,0-1.25,1.75,4.9,4.9,0,0,0-.12.8,2.06,2.06,0,0,1,0-.82,3.2,3.2,0,0,1,1.25-1.85,3.89,3.89,0,0,1,3.25-.47,20.07,20.07,0,0,1,3.75,1.58,5.48,5.48,0,0,0,3.86.55c1.15-.39,2-1.25,3-1.37a1.79,1.79,0,0,1,1.27.22,1.72,1.72,0,0,1,.62.76,1.23,1.23,0,0,1,.09.61A.71.71,0,0,1,307.61,125.61Z" style="fill:#263238"></path><path d="M286.78,124.83c0,.61,4.34,22.9,4.34,22.9l17-.28,4.1-22.83Z" style="fill:#4C53A5"></path><path d="M286.78,124.83h.48l1.43,0,5.34-.07,18.21-.2h.16l-.07.15-2.63,5.23q-1.14,2.25-2.21,4.39l0,.05h-.07l-15.86,0h0l0,0-4.68-9.45,4.82,9.38-.07-.05,15.86,0-.09.05,2.21-4.38c.9-1.79,1.78-3.55,2.63-5.23l.1.15Z" style="fill:#263238"></path><g style="opacity:0.30000000000000004"><polygon points="291.99 134.24 292.42 135.17 307.85 135.17 311.83 125.42 307.39 134.24 291.99 134.24"></polygon></g><path d="M303,143.62a41.51,41.51,0,0,1-6,0,45.65,45.65,0,0,1,6,0Z" style="fill:#fff"></path><path d="M301.91,140.07s0-.17-.1-.47a1.9,1.9,0,1,0-2.51,2.23,1.87,1.87,0,0,0,1.79-.25,1.93,1.93,0,0,0,.72-1c.08-.29.08-.47.1-.47a1.32,1.32,0,0,1,0,.49,2,2,0,0,1-.71,1.14,2,2,0,0,1-1.94.31,2.05,2.05,0,0,1,0-3.88,2,2,0,0,1,1.94.32,1.92,1.92,0,0,1,.71,1.13A1.31,1.31,0,0,1,301.91,140.07Z" style="fill:#fff"></path><path d="M292,116.94a.69.69,0,0,0,.44-.44,1,1,0,0,0,0-.73,3.4,3.4,0,0,0-.56-.84,2.9,2.9,0,0,1,.39-4c.4-.37.89-.74.95-1.29a1.93,1.93,0,0,0-.68-1.43,5.45,5.45,0,0,1-1-1.28,3.37,3.37,0,0,1-.11-2.7,3.27,3.27,0,0,1,1.13-1.44,2,2,0,0,1,.6-.32s-.21.11-.55.38a3.32,3.32,0,0,0-1,1.43,3.25,3.25,0,0,0,.14,2.56,5.75,5.75,0,0,0,1,1.24,2.07,2.07,0,0,1,.74,1.58,2.52,2.52,0,0,1-1,1.42,2.74,2.74,0,0,0-.42,3.76,3.36,3.36,0,0,1,.56.89,1.09,1.09,0,0,1,0,.8C292.36,117,292,117,292,116.94Z" style="fill:#263238"></path><path d="M294.67,116.94a.69.69,0,0,0,.44-.44,1,1,0,0,0,0-.73,3.4,3.4,0,0,0-.56-.84,2.9,2.9,0,0,1,.39-4c.4-.37.89-.74.95-1.29a1.93,1.93,0,0,0-.68-1.43,5.45,5.45,0,0,1-1-1.28,3.37,3.37,0,0,1-.11-2.7,3.27,3.27,0,0,1,1.13-1.44,2,2,0,0,1,.6-.32s-.22.11-.55.38a3.32,3.32,0,0,0-1,1.43,3.21,3.21,0,0,0,.14,2.56,5.75,5.75,0,0,0,1,1.24,2.07,2.07,0,0,1,.74,1.58,2.52,2.52,0,0,1-1,1.42,2.78,2.78,0,0,0-.85,1.27,2.73,2.73,0,0,0,.43,2.49,3.36,3.36,0,0,1,.56.89,1.09,1.09,0,0,1,0,.8C295,117,294.64,117,294.67,116.94Z" style="fill:#263238"></path><rect x="338.83" y="107.97" width="32.45" height="4.42" style="fill:#4C53A5"></rect><rect x="338.83" y="118.87" width="85.59" height="2.83" style="fill:#e0e0e0"></rect><rect x="338.83" y="124.54" width="85.59" height="2.83" style="fill:#e0e0e0"></rect><path d="M401.67,141.25h-1.62v1.59h-1.2v-1.59h-1.62v-1.13h1.62v-1.58h1.2v1.58h1.62Z" style="fill:#4C53A5"></path><path d="M412.73,142.72v1.22h-4.92v-1l2.51-2.38a2.5,2.5,0,0,0,.54-.65,1.28,1.28,0,0,0,.14-.55.72.72,0,0,0-.27-.6,1.2,1.2,0,0,0-.77-.21,1.71,1.71,0,0,0-.77.17,1.42,1.42,0,0,0-.58.48l-1.1-.7a2.49,2.49,0,0,1,1.05-.89,3.45,3.45,0,0,1,1.54-.32,3.34,3.34,0,0,1,1.27.23,2,2,0,0,1,.84.67,1.69,1.69,0,0,1,.31,1,2.26,2.26,0,0,1-.23,1,3.65,3.65,0,0,1-.86,1.06l-1.5,1.42Z" style="fill:#4C53A5"></path><path d="M418.74,140.74h2.64v1.17h-2.64Z" style="fill:#4C53A5"></path><path d="M424.42,148.22s0-.11,0-.29,0-.49,0-.81c0-.75,0-1.77-.05-3.07,0-2.68-.06-6.47-.1-11.14l.19.19-32.33.07.26-.26h0v7.88c0,2.56,0,5,0,7.42l-.25-.25,23.15.12,6.73.06,1.81,0,.64,0a4,4,0,0,1-.58,0l-1.76,0-6.67.06-23.32.12h-.25v-.24c0-2.38,0-4.86,0-7.42v-7.88h0l.26-.26,32.33.07h.19v.19c0,4.72-.07,8.55-.1,11.25,0,1.28,0,2.3-.05,3l0,.78A.67.67,0,0,1,424.42,148.22Z" style="fill:#263238"></path><path d="M345.36,143.33a3.43,3.43,0,0,1-2.05.86v1.33h-1.19v-1.29a6.5,6.5,0,0,1-1.67-.31,4.13,4.13,0,0,1-1.28-.64l.65-1.45a4.35,4.35,0,0,0,1.05.56,4.92,4.92,0,0,0,1.25.28v-2a8,8,0,0,1-1.42-.45,2.46,2.46,0,0,1-1-.73,2,2,0,0,1-.39-1.27,2.28,2.28,0,0,1,.72-1.69,3.4,3.4,0,0,1,2.07-.86v-1.32h1.19v1.29a5.23,5.23,0,0,1,2.4.73l-.59,1.46a4.7,4.7,0,0,0-1.81-.62v2a8.08,8.08,0,0,1,1.4.43,2.47,2.47,0,0,1,1,.72,2,2,0,0,1,.39,1.27A2.25,2.25,0,0,1,345.36,143.33Zm-3.89-4.7a1.79,1.79,0,0,0,.65.32v-1.68a1.36,1.36,0,0,0-.67.33.8.8,0,0,0-.21.54A.62.62,0,0,0,341.47,138.63Zm2.47,3.69a.67.67,0,0,0,.22-.51.61.61,0,0,0-.22-.49,2,2,0,0,0-.63-.33v1.64A1.33,1.33,0,0,0,343.94,142.32Z" style="fill:#e0e0e0"></path><path d="M354.33,143.33a3.43,3.43,0,0,1-2.06.86v1.33h-1.18v-1.29a6.42,6.42,0,0,1-1.67-.31,4.31,4.31,0,0,1-1.29-.64l.66-1.45a4.35,4.35,0,0,0,1,.56,4.92,4.92,0,0,0,1.25.28v-2a8.37,8.37,0,0,1-1.43-.45,2.49,2.49,0,0,1-1-.73,2,2,0,0,1-.39-1.27,2.28,2.28,0,0,1,.72-1.69,3.4,3.4,0,0,1,2.07-.86v-1.32h1.18v1.29a5.23,5.23,0,0,1,2.41.73l-.59,1.46a4.69,4.69,0,0,0-1.82-.62v2a7.94,7.94,0,0,1,1.41.43,2.54,2.54,0,0,1,1,.72,2,2,0,0,1,.39,1.27A2.25,2.25,0,0,1,354.33,143.33Zm-3.89-4.7a1.79,1.79,0,0,0,.65.32v-1.68a1.36,1.36,0,0,0-.67.33.8.8,0,0,0-.21.54A.59.59,0,0,0,350.44,138.63Zm2.47,3.69a.67.67,0,0,0,.22-.51.64.64,0,0,0-.22-.49,2,2,0,0,0-.64-.33v1.64A1.32,1.32,0,0,0,352.91,142.32Z" style="fill:#e0e0e0"></path><path d="M328,153.54c-.15,0-.26-12.33-.26-27.54s.11-27.55.26-27.55.26,12.33.26,27.55S328.16,153.54,328,153.54Z" style="fill:#263238"></path><rect x="271.91" y="158.7" width="56.05" height="54.91" style="fill:#ebebeb"></rect><path d="M271.91,158.7h.79l2.34,0,9.12,0,34.1-.07,117.2-.12h.25v.25c0,17.31,0,35.82,0,54.9h0v.26h-.26l-163.55-.09h-.17v-.17c0-17.24.07-31,.1-40.42,0-4.7,0-8.32,0-10.78,0-1.22,0-2.14,0-2.78s0-.93,0-.93,0,.33,0,1,0,1.57,0,2.8c0,2.47,0,6.11,0,10.82,0,9.42.06,23.13.1,40.32l-.18-.17,163.55-.09-.26.26h0V158.7l.26.25-117-.11-34.17-.07-9.16,0h-2.38Z" style="fill:#263238"></path><rect x="338.83" y="168.55" width="32.45" height="4.42" style="fill:#4C53A5"></rect><rect x="338.83" y="179.46" width="85.59" height="2.83" style="fill:#e0e0e0"></rect><rect x="338.83" y="185.12" width="85.59" height="2.83" style="fill:#e0e0e0"></rect><path d="M401.67,201.84h-1.62v1.58h-1.2v-1.58h-1.62V200.7h1.62v-1.58h1.2v1.58h1.62Z" style="fill:#4C53A5"></path><path d="M410.38,198v6.52h-1.51v-5.31h-1.3V198Z" style="fill:#4C53A5"></path><path d="M416.9,201.32h2.64v1.17H416.9Z" style="fill:#4C53A5"></path><path d="M424.42,208.8s0-.11,0-.29,0-.48,0-.81c0-.75,0-1.77-.05-3.07,0-2.68-.06-6.47-.1-11.14l.19.19-32.33.07.26-.26h0v7.89c0,2.56,0,5,0,7.41l-.25-.25,23.15.12,6.73.07,1.81,0,.64,0a4,4,0,0,1-.58,0l-1.76,0-6.67.07-23.32.11h-.25v-.25c0-2.37,0-4.85,0-7.41V193.5h0l.26-.26,32.33.07h.19v.19c0,4.72-.07,8.55-.1,11.26,0,1.28,0,2.29-.05,3l0,.78A.67.67,0,0,1,424.42,208.8Z" style="fill:#263238"></path><path d="M345.36,203.91a3.43,3.43,0,0,1-2.05.86v1.33h-1.19v-1.29a6.1,6.1,0,0,1-1.67-.31,4.13,4.13,0,0,1-1.28-.64l.65-1.45a4,4,0,0,0,1.05.56,4.94,4.94,0,0,0,1.25.29v-2a10,10,0,0,1-1.42-.45,2.55,2.55,0,0,1-1-.73,2,2,0,0,1-.39-1.28,2.28,2.28,0,0,1,.72-1.69,3.4,3.4,0,0,1,2.07-.86V195h1.19v1.3a5.23,5.23,0,0,1,2.4.72l-.59,1.46a4.7,4.7,0,0,0-1.81-.62v2a9.06,9.06,0,0,1,1.4.43,2.49,2.49,0,0,1,1,.73,1.94,1.94,0,0,1,.39,1.26A2.24,2.24,0,0,1,345.36,203.91Zm-3.89-4.7a1.64,1.64,0,0,0,.65.32v-1.68a1.29,1.29,0,0,0-.67.34.76.76,0,0,0-.21.54A.6.6,0,0,0,341.47,199.21Zm2.47,3.69a.67.67,0,0,0,.22-.51.61.61,0,0,0-.22-.49,2.29,2.29,0,0,0-.63-.33v1.64A1.24,1.24,0,0,0,343.94,202.9Z" style="fill:#e0e0e0"></path><path d="M328,214.12c-.15,0-.26-12.33-.26-27.54S327.87,159,328,159s.26,12.33.26,27.55S328.16,214.12,328,214.12Z" style="fill:#263238"></path><rect x="271.91" y="219.14" width="56.05" height="54.91" style="fill:#ebebeb"></rect><path d="M271.91,219.14l.79,0,2.34,0,9.12,0,34.1-.07,117.2-.12h.25v.26c0,17.31,0,35.81,0,54.89h0v.26h-.26l-163.55-.09h-.17V274c0-17.23.07-31,.1-40.42,0-4.69,0-8.32,0-10.78,0-1.21,0-2.14,0-2.77s0-.93,0-.93,0,.33,0,1,0,1.58,0,2.8c0,2.48,0,6.11,0,10.83,0,9.42.06,23.12.1,40.31l-.18-.17,163.55-.09-.26.26h0V219.14l.26.25-117-.12-34.17-.07-9.16,0-2.38,0Z" style="fill:#263238"></path><rect x="338.83" y="228.99" width="32.45" height="4.42" style="fill:#4C53A5"></rect><rect x="338.83" y="239.89" width="85.59" height="2.83" style="fill:#e0e0e0"></rect><rect x="338.83" y="245.55" width="85.59" height="2.83" style="fill:#e0e0e0"></rect><path d="M401.67,262.27h-1.62v1.58h-1.2v-1.58h-1.62v-1.13h1.62v-1.59h1.2v1.59h1.62Z" style="fill:#4C53A5"></path><path d="M410.38,258.44V265h-1.51v-5.31h-1.3v-1.21Z" style="fill:#4C53A5"></path><path d="M416.9,261.76h2.64v1.16H416.9Z" style="fill:#4C53A5"></path><path d="M424.42,269.23s0-.1,0-.29,0-.48,0-.81c0-.74,0-1.77-.05-3.07,0-2.67-.06-6.47-.1-11.13l.19.19-32.33.07.26-.26h0v7.87c0,2.56,0,5,0,7.41l-.25-.24,23.15.11,6.73.07,1.81,0,.64,0a4,4,0,0,1-.58,0l-1.76,0-6.67.07-23.32.12h-.25v-.25c0-2.37,0-4.85,0-7.41V254h0c-.06,0,.49-.5.26-.27l32.33.07h.19v.2c0,4.71-.07,8.55-.1,11.25,0,1.28,0,2.29-.05,3l0,.77C424.44,269.15,424.43,269.24,424.42,269.23Z" style="fill:#263238"></path><path d="M345.36,264.35a3.49,3.49,0,0,1-2.05.86v1.33h-1.19v-1.3a6.1,6.1,0,0,1-1.67-.31,3.92,3.92,0,0,1-1.28-.64l.65-1.44a4.33,4.33,0,0,0,1.05.55,4.54,4.54,0,0,0,1.25.29v-2a10,10,0,0,1-1.42-.45,2.55,2.55,0,0,1-1-.73,2,2,0,0,1-.39-1.28,2.29,2.29,0,0,1,.72-1.69,3.46,3.46,0,0,1,2.07-.86v-1.31h1.19v1.29a5.23,5.23,0,0,1,2.4.72l-.59,1.46a4.68,4.68,0,0,0-1.81-.61v2a9.06,9.06,0,0,1,1.4.43,2.59,2.59,0,0,1,1,.73,1.94,1.94,0,0,1,.39,1.26A2.26,2.26,0,0,1,345.36,264.35Zm-3.89-4.71a1.79,1.79,0,0,0,.65.33v-1.69a1.37,1.37,0,0,0-.67.34.76.76,0,0,0-.21.54A.59.59,0,0,0,341.47,259.64Zm2.47,3.69a.67.67,0,0,0,.22-.51.59.59,0,0,0-.22-.48,1.85,1.85,0,0,0-.63-.33v1.63A1.17,1.17,0,0,0,343.94,263.33Z" style="fill:#e0e0e0"></path><path d="M353.51,264.35a3.46,3.46,0,0,1-2.05.86v1.33h-1.19v-1.3a6.17,6.17,0,0,1-1.67-.31,3.92,3.92,0,0,1-1.28-.64l.65-1.44a4.23,4.23,0,0,0,1.06.55,4.48,4.48,0,0,0,1.24.29v-2a10.45,10.45,0,0,1-1.42-.45,2.52,2.52,0,0,1-1-.73,2,2,0,0,1-.4-1.28,2.29,2.29,0,0,1,.72-1.69,3.46,3.46,0,0,1,2.07-.86v-1.31h1.19v1.29a5.31,5.31,0,0,1,2.41.72l-.6,1.46a4.68,4.68,0,0,0-1.81-.61v2a9.06,9.06,0,0,1,1.4.43,2.52,2.52,0,0,1,1,.73,1.94,1.94,0,0,1,.39,1.26A2.26,2.26,0,0,1,353.51,264.35Zm-3.89-4.71a1.87,1.87,0,0,0,.65.33v-1.69a1.29,1.29,0,0,0-.66.34.77.77,0,0,0-.22.54A.59.59,0,0,0,349.62,259.64Zm2.48,3.69a.69.69,0,0,0,.21-.51.59.59,0,0,0-.22-.48,1.76,1.76,0,0,0-.63-.33v1.63A1.2,1.2,0,0,0,352.1,263.33Z" style="fill:#e0e0e0"></path><path d="M328,274.56c-.15,0-.26-12.34-.26-27.55s.11-27.54.26-27.54.26,12.33.26,27.54S328.16,274.56,328,274.56Z" style="fill:#263238"></path><path d="M288.92,178.35,291,206a1.67,1.67,0,0,0,1.64,1.54l11.24.09a1.67,1.67,0,0,0,1.67-1.52l2.28-27.45Z" style="fill:#4C53A5"></path><g style="opacity:0.30000000000000004"><path d="M306.85,190.45a159.21,159.21,0,0,1-17.15-.23l.54,8.32s10,1.71,16-.38Z"></path></g><g style="opacity:0.30000000000000004"><path d="M307.7,180.17A26.77,26.77,0,0,1,295.45,182c-5.44-.34-6.4-1.66-6.4-1.66l-.07-1.24,18.81,0Z"></path></g><path d="M308.62,177.17l.44,1.91s-2.15,1.78-10.94,1.66c-7.87-.1-9.78-1.56-9.78-1.56l-.61-.52.54-1.8Z" style="fill:#e0e0e0"></path><path d="M308.62,177.17h-1.57l-4.32,0-14.47-.2.06,0-.53,1.8,0-.07.64.54a4.29,4.29,0,0,0,.78.37l.41.14.42.13c.55.15,1.11.27,1.67.37a29.26,29.26,0,0,0,3.28.39,55.65,55.65,0,0,0,6,.11,30.85,30.85,0,0,0,4.84-.5,15,15,0,0,0,1.87-.47,5.38,5.38,0,0,0,1.38-.63v0l-.3-1.41-.08-.37,0-.13a.64.64,0,0,1,0,.12l.08.37c.08.32.2.8.34,1.41v0h0a5.46,5.46,0,0,1-1.39.65,14.84,14.84,0,0,1-1.87.49,30.94,30.94,0,0,1-4.85.52,55.73,55.73,0,0,1-6-.09,29.71,29.71,0,0,1-3.29-.39,17.1,17.1,0,0,1-1.69-.38c-.14,0-.28-.08-.42-.12s-.28-.09-.41-.15a3.73,3.73,0,0,1-.81-.38l-.65-.54,0,0v0c.19-.62.37-1.23.54-1.8v0h0l14.5.25,4.3.08,1.16,0h.39Z" style="fill:#263238"></path><path d="M288.25,177c0,.92,4.52,1.58,10.18,1.73,3.86.1,9.5-.64,10.19-1.61.54-.74-4.55-1.69-10.17-1.73S288.26,176.1,288.25,177Z" style="fill:#fff"></path><path d="M288.25,177a.45.45,0,0,1,0-.11.59.59,0,0,1,.2-.25,3.71,3.71,0,0,1,1.13-.49,24.87,24.87,0,0,1,4.47-.67,57.92,57.92,0,0,1,6.7-.08c1.27.07,2.59.17,4,.36.68.09,1.37.2,2.07.36a8.47,8.47,0,0,1,1,.28,3.66,3.66,0,0,1,.51.21l.12.07.12.08a.52.52,0,0,1,.1.11.25.25,0,0,1,0,.17.3.3,0,0,1-.07.15l-.11.11a1.88,1.88,0,0,1-.23.16,3.16,3.16,0,0,1-.5.22,8.06,8.06,0,0,1-1,.31c-.7.17-1.39.29-2.07.4-1.36.19-2.68.31-3.94.36a35.66,35.66,0,0,1-3.59,0c-1.12,0-2.17-.12-3.12-.21a26.51,26.51,0,0,1-4.46-.69,3.38,3.38,0,0,1-1.13-.49.53.53,0,0,1-.2-.25.42.42,0,0,1,0-.1s0,0,0,.1a.5.5,0,0,0,.2.23,3.66,3.66,0,0,0,1.13.46,27,27,0,0,0,4.46.66c.95.08,2,.14,3.11.18a35.49,35.49,0,0,0,3.58,0c1.26-.06,2.58-.17,3.94-.37.67-.1,1.36-.23,2.05-.39a9,9,0,0,0,1-.31,4.31,4.31,0,0,0,.49-.22,1.59,1.59,0,0,0,.21-.15.35.35,0,0,0,.14-.17.22.22,0,0,0-.1-.18,795787496703.13,795787496703.13,0,0,1-.22-.14,4.19,4.19,0,0,0-.49-.2,9.17,9.17,0,0,0-1-.27c-.69-.16-1.38-.27-2.06-.36-1.35-.19-2.67-.3-3.93-.36a58.56,58.56,0,0,0-6.7.05,24.59,24.59,0,0,0-4.46.63,3.72,3.72,0,0,0-1.12.46.7.7,0,0,0-.21.23C288.26,177,288.26,177,288.25,177Z" style="fill:#263238"></path><path d="M304.24,175.39l.24,1.07s-1.21,1.1-6.15.94-5.49-.88-5.49-.88l-.14-.17.1-1.14Z" style="fill:#e0e0e0"></path><path d="M304.24,175.39h-.89l-2.43,0-8.13-.11.07-.05c0,.36-.07.74-.1,1.13l0,0,.11.12a.24.24,0,0,0,.1.1,3.14,3.14,0,0,0,.9.33c.31.08.63.14.94.19.62.09,1.24.15,1.84.2a32.27,32.27,0,0,0,3.33.1,16.08,16.08,0,0,0,2.71-.26,6.8,6.8,0,0,0,1-.28,2.56,2.56,0,0,0,.76-.37v0l-.17-.8,0-.2a.45.45,0,0,1,0-.08.31.31,0,0,1,0,.07l.05.2c.05.19.11.45.2.8h0a3.08,3.08,0,0,1-.77.4,8.14,8.14,0,0,1-1,.29,16.09,16.09,0,0,1-2.72.29c-1,0-2.15,0-3.35-.09-.6-.05-1.22-.11-1.85-.2-.31,0-.63-.11-.95-.19a3.17,3.17,0,0,1-.94-.35.49.49,0,0,1-.13-.12l-.1-.12,0,0v0l.1-1.13v-.06h.06l8.16.15,2.41.06.65,0h.22Z" style="fill:#263238"></path><path d="M292.79,175.3c0,.52,2.56,1,5.72,1s5.73-.39,5.73-.91-2.56-1-5.72-1S292.79,174.78,292.79,175.3Z" style="fill:#fff"></path><path d="M292.79,175.3s0-.1.12-.2a1.79,1.79,0,0,1,.63-.28,13.83,13.83,0,0,1,2.52-.39,32.77,32.77,0,0,1,3.78-.05c.71,0,1.45.08,2.22.18.38.06.77.12,1.17.21a4.3,4.3,0,0,1,.58.18,1.47,1.47,0,0,1,.28.14.37.37,0,0,1,.21.28.38.38,0,0,1-.21.29,1.17,1.17,0,0,1-.28.13,3.53,3.53,0,0,1-.59.17c-.39.09-.78.15-1.17.2-.77.09-1.52.13-2.23.15a29.66,29.66,0,0,1-3.77-.1,13.27,13.27,0,0,1-2.51-.41,2.15,2.15,0,0,1-.64-.29c-.13-.1-.12-.21-.11-.21a.26.26,0,0,0,.13.19,2.16,2.16,0,0,0,.63.26,14.8,14.8,0,0,0,2.51.38,34.34,34.34,0,0,0,3.76.07c.71,0,1.45-.07,2.22-.16a11.53,11.53,0,0,0,1.15-.2,3.7,3.7,0,0,0,.57-.16l.27-.13c.08,0,.15-.11.15-.18s-.07-.13-.15-.18a2.1,2.1,0,0,0-.26-.13c-.19-.07-.38-.12-.57-.17-.39-.09-.77-.15-1.16-.21-.76-.1-1.5-.15-2.21-.19a35.34,35.34,0,0,0-3.76,0,14.34,14.34,0,0,0-2.51.34,2.25,2.25,0,0,0-.64.26A.27.27,0,0,0,292.79,175.3Z" style="fill:#263238"></path><path d="M297.58,175.07l-.27-12.36,1.56-.07.26,12.44C298.52,175.06,298.14,175.27,297.58,175.07Z" style="fill:#fff"></path><path d="M297.58,175.07a1.67,1.67,0,0,0,.39.07,3,3,0,0,0,.49,0,3.43,3.43,0,0,1,.68-.05l0,0c-.07-2.25-.19-7-.3-12.39v0l.06.06-1.56.06.06-.06c.07,3.47.13,6.56.17,8.78,0,1.1,0,2,0,2.62v1a.28.28,0,0,0,0-.06v-.18c0-.16,0-.4,0-.7,0-.62,0-1.51-.07-2.61-.06-2.23-.14-5.32-.22-8.81v-.06h.06l1.55-.07h.07v.1c.12,5.44.2,10.15.23,12.4v0h0a4.55,4.55,0,0,0-.67,0,2.89,2.89,0,0,1-.49,0,1.19,1.19,0,0,1-.29-.06Z" style="fill:#263238"></path><polygon points="298.39 162.72 298.65 175.11 298.07 175.09 297.72 162.73 298.39 162.72" style="fill:#455a64"></polygon><path d="M297,174.94s.69.09,1.53.1,1.54-.11,1.54-.07a1.68,1.68,0,0,1-.44.11,6.62,6.62,0,0,1-1.1.08,6.14,6.14,0,0,1-1.09-.1A1.15,1.15,0,0,1,297,174.94Z" style="fill:#263238"></path><path d="M308.1,179.57a3,3,0,0,1-.3-.92,4.8,4.8,0,0,1-.18-.94,3,3,0,0,1,.3.92A4.8,4.8,0,0,1,308.1,179.57Z" style="fill:#263238"></path><path d="M306.47,180.07a4.2,4.2,0,0,1-.31-.94,4,4,0,0,1-.19-1,4.2,4.2,0,0,1,.31.94A3.48,3.48,0,0,1,306.47,180.07Z" style="fill:#263238"></path><path d="M304.71,180.46a5.08,5.08,0,0,1-.27-1,4.92,4.92,0,0,1-.15-1,3.84,3.84,0,0,1,.27,1A3.68,3.68,0,0,1,304.71,180.46Z" style="fill:#263238"></path><path d="M302.64,180.68a8.58,8.58,0,0,1-.3-2,5.14,5.14,0,0,1,.21,1A4.81,4.81,0,0,1,302.64,180.68Z" style="fill:#263238"></path><path d="M300.46,180.78a4.75,4.75,0,0,1,0-1,4.44,4.44,0,0,1,.1-1,4.75,4.75,0,0,1,0,1A4.54,4.54,0,0,1,300.46,180.78Z" style="fill:#263238"></path><path d="M298.68,180.73a3.36,3.36,0,0,1,0-1,4,4,0,0,1,.12-1,3.34,3.34,0,0,1,0,1A4.11,4.11,0,0,1,298.68,180.73Z" style="fill:#263238"></path><path d="M296.8,180.66a3,3,0,0,1,.06-1,3.27,3.27,0,0,1,.23-.95,4.39,4.39,0,0,1-.11,1A5,5,0,0,1,296.8,180.66Z" style="fill:#263238"></path><path d="M294.57,180.51a4.31,4.31,0,0,1,.21-1,4.38,4.38,0,0,1,.33-1,3.75,3.75,0,0,1-.21,1A4.38,4.38,0,0,1,294.57,180.51Z" style="fill:#263238"></path><path d="M292.54,180.36a4.77,4.77,0,0,1,.2-1,3.77,3.77,0,0,1,.32-1,4.63,4.63,0,0,1-.2,1A3.76,3.76,0,0,1,292.54,180.36Z" style="fill:#263238"></path><path d="M290.15,179.9a4.06,4.06,0,0,1,.25-.94,4.14,4.14,0,0,1,.38-.9,8.11,8.11,0,0,1-.63,1.84Z" style="fill:#263238"></path><path d="M288.36,179.23a3.26,3.26,0,0,1,.23-.84,2.7,2.7,0,0,1,.34-.8,3.16,3.16,0,0,1-.23.84A2.7,2.7,0,0,1,288.36,179.23Z" style="fill:#263238"></path><path d="M302.66,243.68a8.9,8.9,0,0,0,1.72-4.43,7.23,7.23,0,0,0-.68-4.2c-.05-.09-.1-.19-.2-.22a.4.4,0,0,0-.3,0,5.08,5.08,0,0,0-.54,8.8" style="fill:#455a64"></path><path d="M305.77,240a6.73,6.73,0,0,0,2.9-2.13,5.38,5.38,0,0,0,1.27-3,.29.29,0,0,0,0-.22.31.31,0,0,0-.21-.09,3.84,3.84,0,0,0-3.92,5.39" style="fill:#455a64"></path><path d="M305.24,243.57a2.08,2.08,0,0,0-.69-2,3.11,3.11,0,0,0-2-.71,3.3,3.3,0,0,0-1.84.49,2.46,2.46,0,0,0-1.1,1.54,2.42,2.42,0,0,0,.77,2.2,3.29,3.29,0,0,0,2.23.82,2.71,2.71,0,0,0,1.87-.69,2.35,2.35,0,0,0,.8-1.66" style="fill:#4C53A5"></path><path d="M312.29,245.58c2.77.49,5.52-2.58,6.18-4.57a.69.69,0,0,0,0-.64.66.66,0,0,0-.66-.15,6.43,6.43,0,0,0-3.63,1.77,6.59,6.59,0,0,0-1.87,3.59" style="fill:#455a64"></path><path d="M315.41,244.06a2.09,2.09,0,0,0-.69-2,3.06,3.06,0,0,0-2-.71,3.34,3.34,0,0,0-1.85.49,2.31,2.31,0,0,0-.33,3.74,3.23,3.23,0,0,0,2.23.81,2.68,2.68,0,0,0,1.87-.68,2.33,2.33,0,0,0,.81-1.67" style="fill:#4C53A5"></path><path d="M295.16,239.74a2.08,2.08,0,0,0-.69-2,3.17,3.17,0,0,0-2-.71,3.4,3.4,0,0,0-1.84.5,2.29,2.29,0,0,0-.34,3.73,3.27,3.27,0,0,0,2.24.82,2.71,2.71,0,0,0,1.87-.69,2.35,2.35,0,0,0,.8-1.66" style="fill:#4C53A5"></path><path d="M301.12,244.66a8.92,8.92,0,0,0-1.87-4.37,7.14,7.14,0,0,0-3.42-2.53.42.42,0,0,0-.29,0,.36.36,0,0,0-.18.25,5.08,5.08,0,0,0,5.76,6.67" style="fill:#455a64"></path><path d="M291,242.19a13.72,13.72,0,0,1-1.46-2,4.65,4.65,0,0,1-.62-2.4.47.47,0,0,1,.13-.34.45.45,0,0,1,.36,0,7.67,7.67,0,0,1,5.94,6.67l.08.42a5.92,5.92,0,0,1-4.38.65,9.34,9.34,0,0,1-3.38-1.33,4.84,4.84,0,0,1-2.05-2.92A6.55,6.55,0,0,1,291,242.19Z" style="fill:#455a64"></path><path d="M308.27,239.75a9.9,9.9,0,0,1,4.9-2.49,7,7,0,0,1-6.16,7.79l-.11-.2A5.1,5.1,0,0,1,308.27,239.75Z" style="fill:#455a64"></path><path d="M317.84,243.6a30.4,30.4,0,0,1-5.55,11.22c-6.13,7.55-20,5.45-23.73-.46-1.45-2.26-5.27-10.68-5.27-10.68Z" style="fill:#fff"></path><path d="M317.84,243.6h-.69l-2,0-7.28,0-24.62.11.09-.15c1.12,2.45,2.31,5,3.58,7.55.33.66.67,1.31,1,2a10,10,0,0,0,1.16,1.81,10.22,10.22,0,0,0,3.28,2.61,17.77,17.77,0,0,0,7.68,2,17.25,17.25,0,0,0,7.1-1.17,12.89,12.89,0,0,0,5.06-3.65,30,30,0,0,0,4.52-7.94c.39-1,.65-1.82.82-2.36l.24-.84a21.62,21.62,0,0,1-1,3.23,30,30,0,0,1-4.48,8,13,13,0,0,1-5.12,3.72,17.24,17.24,0,0,1-7.17,1.2,17.78,17.78,0,0,1-7.77-2,10.43,10.43,0,0,1-3.34-2.66,11.13,11.13,0,0,1-1.19-1.84c-.34-.65-.68-1.31-1-2-1.28-2.56-2.46-5.1-3.59-7.55l-.06-.15h34.71Z" style="fill:#263238"></path><path d="M315.57,249.24c0,.06-6.63.1-14.81.1s-14.82,0-14.82-.1,6.63-.1,14.82-.1S315.57,249.18,315.57,249.24Z" style="fill:#4C53A5"></path><path d="M316.17,248.39c0,.06-6.87.1-15.34.1s-15.34,0-15.34-.1,6.86-.11,15.34-.11S316.17,248.33,316.17,248.39Z" style="fill:#4C53A5"></path></g><g id="freepik--speech-bubble--inject-2"><path d="M159.94,109.25h73.4a5.25,5.25,0,0,1,5.25,5.25v73.4a5.25,5.25,0,0,1-5.25,5.25H178.67c-5,4.24-14.55,12.78-14.55,12.78l-.71-12.78h-3.47a5.25,5.25,0,0,1-5.24-5.25V114.5A5.25,5.25,0,0,1,159.94,109.25Z" style="fill:#fff"></path><path d="M159.94,109.25a7.35,7.35,0,0,0-1.68.32,5.3,5.3,0,0,0-3.28,3.49,14.43,14.43,0,0,0-.19,3.63c0,1.36,0,2.83,0,4.42,0,3.19,0,6.85,0,10.94,0,8.19,0,18.12.06,29.48,0,5.68,0,11.72,0,18.08v4.83c0,.81,0,1.63,0,2.45a8.34,8.34,0,0,0,.2,2.41,5,5,0,0,0,3.23,3.36,6.88,6.88,0,0,0,2.46.26h2.82v.21c.23,4,.47,8.35.72,12.79l-.4-.17L178.51,193l.07-.06h46.3c3,0,5.93,0,8.82,0a5,5,0,0,0,4.47-3.74,8,8,0,0,0,.16-2.09V170c0-11.18,0-22,0-32.24q0-7.71,0-15c0-2.43,0-4.83,0-7.19a16.34,16.34,0,0,0-.05-1.73,4.92,4.92,0,0,0-.5-1.59,5,5,0,0,0-2.33-2.26,5.07,5.07,0,0,0-1.57-.46c-.53,0-1.1,0-1.66,0h-9.82l-12.2,0-36.8-.08-10,0-2.6,0-.89,0,.89,0,2.6,0,10,0,36.8-.08,12.2,0h9.82c.56,0,1.12,0,1.71,0a5.52,5.52,0,0,1,4.24,2.94,5.28,5.28,0,0,1,.54,1.73,12.08,12.08,0,0,1,.06,1.79c0,2.36,0,4.76,0,7.19q0,7.3,0,15c0,10.27,0,21.06,0,32.24q0,8.38,0,17a8.43,8.43,0,0,1-.18,2.22,5.36,5.36,0,0,1-1,2,5.45,5.45,0,0,1-3.93,2.1c-3,0-5.89,0-8.86,0H178.67l.17-.06c-5,4.41-10,8.72-14.56,12.77l-.37.33,0-.5c-.24-4.44-.48-8.78-.7-12.78l.23.22h-2.6a7.52,7.52,0,0,1-2.61-.29,5.52,5.52,0,0,1-3.51-3.67,8.75,8.75,0,0,1-.21-2.53v-7.28c0-6.36,0-12.4,0-18.08,0-11.36,0-21.29.05-29.48,0-4.09,0-7.75,0-10.94,0-1.59,0-3.06,0-4.42a14.3,14.3,0,0,1,.23-3.67,5.27,5.27,0,0,1,3.4-3.52,5.4,5.4,0,0,1,1.27-.24Z" style="fill:#263238"></path><polygon points="214.51 149.94 211.85 162.99 220.51 162.79 214.51 149.94" style="fill:#4C53A5"></polygon><g style="opacity:0.30000000000000004"><polygon points="214.51 149.94 211.85 162.99 220.51 162.79 214.51 149.94"></polygon></g><polygon points="177.37 150.36 180.03 163.41 171.36 163.21 177.37 150.36" style="fill:#4C53A5"></polygon><g style="opacity:0.30000000000000004"><polygon points="177.37 150.36 180.03 163.41 171.36 163.21 177.37 150.36"></polygon></g><path d="M199.56,152.78h0a1.09,1.09,0,0,1-1.09-1.05l-1.27-30.57a1.11,1.11,0,0,1,1.1-1.14h1.53a1.09,1.09,0,0,1,1.09,1.1l-.26,30.57A1.1,1.1,0,0,1,199.56,152.78Z" style="fill:#844031"></path><rect x="197.32" y="123.92" width="3.61" height="2.65" style="fill:#4C53A5"></rect><path d="M202,152.9h0a1.1,1.1,0,0,1-.67-1.37l9.31-29.14a1.09,1.09,0,0,1,1.42-.7l1.43.52a1.11,1.11,0,0,1,.65,1.42l-10.74,28.62A1.11,1.11,0,0,1,202,152.9Z" style="fill:#844031"></path><rect x="209.75" y="125.08" width="2.65" height="3.61" transform="translate(19.42 281.56) rotate(-69.92)" style="fill:#4C53A5"></rect><path d="M212.44,145.13a7.26,7.26,0,0,0-5-3.19,10.21,10.21,0,0,0-5.8,1c-1.41.67-2.87,1.6-4.38,1.29a8.71,8.71,0,0,1-2.87-1.63,10.18,10.18,0,0,0-7.79-1.58,11.1,11.1,0,0,0-6.75,4.66,7.47,7.47,0,0,0-1.32,6.14l34.52-.12A7.46,7.46,0,0,0,212.44,145.13Z" style="fill:#e0e0e0"></path><path d="M211.52,151a12.36,12.36,0,0,0,0-1.7,6.29,6.29,0,0,0-2-4,5,5,0,0,0-2.81-1.21,8,8,0,0,0-3.54.5c-1.2.42-2.34,1.2-3.7,1.75a5.48,5.48,0,0,1-2.22.41,5.86,5.86,0,0,1-2.24-.62c-1.4-.67-2.57-1.58-3.81-2.22a7.32,7.32,0,0,0-3.83-.85,7.62,7.62,0,0,0-3.41,1,8.08,8.08,0,0,0-2.33,2.1,10.19,10.19,0,0,0-1.85,4.18c-.2,1.08-.19,1.7-.24,1.69a1.38,1.38,0,0,1,0-.44,8.42,8.42,0,0,1,.08-1.28,9.89,9.89,0,0,1,1.75-4.37,8.45,8.45,0,0,1,2.41-2.25,8,8,0,0,1,3.61-1.14,7.75,7.75,0,0,1,4.08.88c1.3.66,2.48,1.57,3.8,2.2a5.49,5.49,0,0,0,2,.57,4.86,4.86,0,0,0,2-.37c1.28-.5,2.45-1.29,3.72-1.72a8.37,8.37,0,0,1,3.75-.48,5.33,5.33,0,0,1,3,1.37,6.34,6.34,0,0,1,1.91,4.28,6.19,6.19,0,0,1-.08,1.28C211.58,150.82,211.54,151,211.52,151Z" style="fill:#263238"></path><path d="M209.88,151.37a14,14,0,0,0,0-1.48,4.64,4.64,0,0,0-1.9-3.35,3.55,3.55,0,0,0-2.55-.6,7.89,7.89,0,0,0-2.88,1.24,12.45,12.45,0,0,1-3.26,1.64,6.28,6.28,0,0,1-3.93-.37c-2.51-1-4.5-2.66-6.71-3.1A5.79,5.79,0,0,0,183.3,147a7.49,7.49,0,0,0-1.87,3.5c-.22.93-.21,1.48-.26,1.47s0-.13,0-.39a7,7,0,0,1,.1-1.12,7.38,7.38,0,0,1,1.8-3.72,6.39,6.39,0,0,1,2.4-1.62,5.87,5.87,0,0,1,3.32-.28c2.37.46,4.4,2.15,6.8,3.09a5.9,5.9,0,0,0,3.61.36,12.45,12.45,0,0,0,3.14-1.56,8,8,0,0,1,3.07-1.26,3.91,3.91,0,0,1,2.82.73,4.4,4.4,0,0,1,1.49,1.88,4.93,4.93,0,0,1,.4,1.75A4.78,4.78,0,0,1,210,151,1.16,1.16,0,0,1,209.88,151.37Z" style="fill:#263238"></path><path d="M207.74,151.38a2.79,2.79,0,0,0-.22-1.13A2.19,2.19,0,0,0,205,149a6.07,6.07,0,0,0-2,.86,12.51,12.51,0,0,1-2.34,1.22,8.28,8.28,0,0,1-5.93-.79,31.8,31.8,0,0,0-5.4-2.32,5.49,5.49,0,0,0-4.5.56,4.64,4.64,0,0,0-1.83,2.5c-.21.73-.16,1.17-.22,1.17a1.16,1.16,0,0,1-.05-.31,3.59,3.59,0,0,1,.07-.91,4.66,4.66,0,0,1,1.82-2.75,5.8,5.8,0,0,1,4.82-.73,30.11,30.11,0,0,1,5.5,2.32,8,8,0,0,0,5.57.8,12.65,12.65,0,0,0,2.27-1.13,6.15,6.15,0,0,1,2.15-.85,2.63,2.63,0,0,1,1.91.35,2.54,2.54,0,0,1,.91,1.14,1.9,1.9,0,0,1,.12.91A.55.55,0,0,1,207.74,151.38Z" style="fill:#263238"></path><path d="M177.31,150.25c0,.89,6.34,33.46,6.34,33.46l24.87-.41,6-33.36Z" style="fill:#4C53A5"></path><path d="M177.31,150.25a5.37,5.37,0,0,1,.69,0l2.07-.05,7.78-.13,26.66-.35h.42l-.19.38-3.85,7.65c-1.1,2.18-2.18,4.33-3.23,6.4l-.07.15h-.16l-23.18-.07h-.12l0-.1c-2.1-4.26-3.81-7.73-5-10.18l-1.33-2.73-.34-.71a1,1,0,0,1-.09-.22l.14.25.39.73,1.44,2.74c1.23,2.4,3,5.78,5.14,9.94l-.17-.11,23.18-.06-.23.14,3.23-6.41,3.85-7.64.23.37-26.44.08h-10Z" style="fill:#263238"></path><g style="opacity:0.30000000000000004"><polygon points="184.91 164 185.54 165.35 208.09 165.35 213.92 151.12 207.43 164 184.91 164"></polygon></g><path d="M201,177.71a19.2,19.2,0,0,1-4.41.26,19.13,19.13,0,0,1-4.41-.26,19.13,19.13,0,0,1,4.41-.26A19.2,19.2,0,0,1,201,177.71Z" style="fill:#fff"></path><path d="M199.42,172.52s-.06-.25-.19-.68a2.87,2.87,0,0,0-1.06-1.46,2.71,2.71,0,0,0-2.53-.34,2.66,2.66,0,1,0,2.53,4.62,2.83,2.83,0,0,0,1.06-1.46c.13-.42.14-.68.19-.68a1.39,1.39,0,0,1,0,.73,2.85,2.85,0,0,1-1,1.71,3.05,3.05,0,0,1-2.92.49,3.11,3.11,0,0,1,0-5.86,3,3,0,0,1,2.92.5,2.8,2.8,0,0,1,1,1.7A1.39,1.39,0,0,1,199.42,172.52Z" style="fill:#fff"></path><path d="M185,138.71a1.09,1.09,0,0,0,.61-.65,1.48,1.48,0,0,0,0-1,5.32,5.32,0,0,0-.84-1.21,4.3,4.3,0,0,1,.57-6c.59-.55,1.27-1.09,1.35-1.83a2.74,2.74,0,0,0-1-2,7.71,7.71,0,0,1-1.45-1.91,5,5,0,0,1-.14-4,4.65,4.65,0,0,1,1.7-2.11,1.94,1.94,0,0,1,.89-.43s-.29.19-.77.59a5,5,0,0,0-1.48,2.08,4.67,4.67,0,0,0,.23,3.67,8,8,0,0,0,1.4,1.78,5.92,5.92,0,0,1,.78,1,2.2,2.2,0,0,1,.32,1.37,2.41,2.41,0,0,1-.61,1.27,12.26,12.26,0,0,1-.92.87,4,4,0,0,0-.62,5.37,5.27,5.27,0,0,1,.82,1.33,1.65,1.65,0,0,1,0,1.21,1,1,0,0,1-.54.54C185.08,138.74,185,138.72,185,138.71Z" style="fill:#263238"></path><path d="M188.83,138.71a1.09,1.09,0,0,0,.61-.65,1.48,1.48,0,0,0,0-1,5.32,5.32,0,0,0-.84-1.21,4.3,4.3,0,0,1,.57-6c.59-.55,1.27-1.09,1.35-1.83a2.74,2.74,0,0,0-1-2,7.44,7.44,0,0,1-1.44-1.91,4.91,4.91,0,0,1-.15-4,4.78,4.78,0,0,1,1.7-2.11,1.94,1.94,0,0,1,.9-.43s-.3.19-.78.59a4.94,4.94,0,0,0-1.47,2.08,4.63,4.63,0,0,0,.23,3.67,7.64,7.64,0,0,0,1.39,1.78,5.92,5.92,0,0,1,.78,1,2.2,2.2,0,0,1,.32,1.37,2.33,2.33,0,0,1-.61,1.27c-.3.33-.62.6-.91.87a3.85,3.85,0,0,0-1.22,1.81,3.92,3.92,0,0,0,.6,3.56,5.22,5.22,0,0,1,.81,1.33,1.6,1.6,0,0,1,0,1.21,1,1,0,0,1-.54.54C188.92,138.74,188.83,138.72,188.83,138.71Z" style="fill:#263238"></path></g><g id="freepik--Character--inject-2"><polygon points="74.04 436.84 67.08 482.1 75.03 482.1 88.46 436.84 74.04 436.84" style="fill:#263238"></polygon><polygon points="246.82 436.84 253.78 482.1 245.82 482.1 232.4 436.84 246.82 436.84" style="fill:#263238"></polygon><path d="M37.87,316.79c-.56,20.42-5.86,110.5,12.61,127.65H73.42c6,0,5.66-2.83,5.43-8.8L74.49,318.76a10.41,10.41,0,0,0-2.27-6.17c-3-3.72-9.07-9.47-17.38-8.91a24.61,24.61,0,0,0-12.55,4.16A11,11,0,0,0,37.87,316.79Z" style="fill:#455a64"></path><polygon points="245.78 445.75 73.42 444.44 73.42 391.19 245.78 391.19 245.78 445.75" style="fill:#455a64"></polygon><polygon points="245.1 391.19 72.43 392.61 72.43 360.67 245.78 357.42 245.1 391.19" style="fill:#455a64"></polygon><path d="M41.13,310.8s1.28-44.34,50.08-46.63,121.21,0,121.21,0,61.3-2.3,62.72,36.31l-12.18,74H73.69Z" style="fill:#455a64"></path><path d="M282.39,321.5c-1.29,30.56-4.11,120.2-25.37,124.25H241.21l4.89-130.94s7.33-12.78,19.54-12l.37,0A17.87,17.87,0,0,1,282.39,321.5Z" style="fill:#455a64"></path><path d="M273.68,304.71l-.58-.14-1.65-.45-1.2-.33-1.5-.23c-.54-.07-1.12-.18-1.74-.25l-2,0a21.53,21.53,0,0,0-9.8,2.45l-.67.33-.65.4-1.32.83a29.46,29.46,0,0,0-2.54,2,26.66,26.66,0,0,0-4.6,5.33l0-.09c-.64,13.53-1.44,30.62-2.31,49.16-1,22.57-1.73,43-2.14,57.81-.19,7.39-.33,13.37-.44,17.53,0,2.05-.09,3.66-.11,4.77,0,.53,0,.94-.05,1.24s0,.42,0,.42,0-.14,0-.42,0-.72,0-1.24c0-1.12,0-2.72,0-4.77,0-4.14.13-10.13.28-17.53.33-14.81,1-35.26,2-57.83.83-18.55,1.7-35.65,2.4-49.16h0a.13.13,0,0,1,0-.08,26.55,26.55,0,0,1,4.69-5.38,28.34,28.34,0,0,1,2.59-2.05l1.34-.84.66-.4.68-.33a21.64,21.64,0,0,1,9.94-2.4l2,.07c.62.07,1.2.19,1.75.27l1.5.25,1.2.36,1.64.51Z" style="fill:#263238"></path><path d="M73.69,392.47l.86,0,2.52,0,9.71,0,35.71.09c30.15.11,71.8.44,117.79-.22l1.91,0-.25.23c.17-5.46.33-10.86.49-16.17q.12-4,.24-7.92l.12-3.91c0-.64.06-1.31,0-1.92a4.05,4.05,0,0,0-.5-1.76,4.43,4.43,0,0,0-2.92-2.15,8.16,8.16,0,0,0-1.93-.11h-2l-7.82,0-15.14.1-52.35.54c-14.89.15-26.93.21-35.25.22l-9.57,0-2.49,0c-.56,0-.85,0-.85,0l.85,0,2.49,0,9.57-.07,35.25-.37,52.34-.65,15.15-.11,7.82,0h2a8.35,8.35,0,0,1,2,.12,4.9,4.9,0,0,1,3.23,2.39,4.44,4.44,0,0,1,.56,1.94c0,.69,0,1.31,0,2,0,1.29-.07,2.6-.11,3.91q-.12,3.91-.24,7.91-.24,8-.48,16.18a.27.27,0,0,1-.25.23l-1.9,0c-46,.66-87.65.28-117.8.08l-35.71-.23-9.71-.07-2.52,0Z" style="fill:#263238"></path><g style="opacity:0.2"><path d="M72.43,392.61c39.56,8.58,58.4,7.93,95.18,8.56,33,.57,69.33-5.38,74.58-8.92Z"></path></g><path d="M73.42,444.44a3.72,3.72,0,0,1,0-.44c0-.32,0-.75,0-1.3,0-1.16,0-2.84,0-5,0-4.36.09-10.61.16-18.33.19-15.5.44-36.87.72-60.47.17-11.81.32-23.06.46-33.29a22.32,22.32,0,0,0-1-7.31,22,22,0,0,0-3.18-6.17,22.33,22.33,0,0,0-4.68-4.5A21.12,21.12,0,0,0,60.56,305a20,20,0,0,0-10.23-.41,19.64,19.64,0,0,0-7.14,3.1,16.26,16.26,0,0,0-3.53,3.45c-.68.91-.95,1.45-1,1.43a2.06,2.06,0,0,1,.2-.39,11.62,11.62,0,0,1,.7-1.1,15.46,15.46,0,0,1,3.49-3.56,19.5,19.5,0,0,1,7.2-3.21,20.16,20.16,0,0,1,10.4.34,21.57,21.57,0,0,1,5.5,2.66,23,23,0,0,1,4.8,4.57,21.13,21.13,0,0,1,4.26,13.74c-.13,10.24-.27,21.49-.42,33.3-.34,23.6-.65,45-.87,60.46-.14,7.72-.25,14-.33,18.33,0,2.15-.08,3.82-.11,5,0,.56,0,1,0,1.3A3,3,0,0,1,73.42,444.44Z" style="fill:#263238"></path><path d="M170.39,350.71a394.07,394.07,0,0,1,6.1-62.55c.56-3.15,1.3-6.54,3.74-8.6,2.1-1.78,5-2.17,7.74-2.39,19.65-1.6,39.68,7.17,57.52,16.67a10.5,10.5,0,0,1,5.43,11.07c-3,17.1-9,30-17.83,46.33a108.54,108.54,0,0,1-63.25,5.6" style="fill:#4C53A5"></path><path d="M135.18,196.19c-1.24-8.81-1.16-8.52-2.26-16.95-2.12-16.36-7.28-34.91-30.63-33.57,0,0-17.59,1-23,13.56-2.88,6.78-3.64,30.24-4.61,51.34a3.55,3.55,0,0,1-.2,1l-1.09,3.19a47.32,47.32,0,0,0-2.51,13L69.4,257.05a3.65,3.65,0,0,0,3.45,3.83c7.87.38,25.85-.62,29.31-1.87a52.74,52.74,0,0,0,31.16-30.8c.36-1,5.45-1.43,6.41-1.8C141.31,225.8,135.42,197.87,135.18,196.19Z" style="fill:#263238"></path><path d="M97.79,153.22l1.48-1.37L115,158.43a4.4,4.4,0,0,1,4.1,4.32l-.86,51.39c0,3.49,1,7.52-1.18,10.27L114.5,228c-5.14,6.6-17,4.21-20.89-3.19a5.33,5.33,0,0,1-.54-1.34,10,10,0,0,1-.22-1.15c-.41-4.14-.39-7.73-.39-7.73-.22-4.54-.28-6.41-.29-6.36S82.53,207,80.09,194.51c-1.21-6.18-.85-14.67-.37-23C80.39,160,88.5,153.08,97.79,153.22Z" style="fill:#ffbf9d"></path><path d="M100.26,179.88a1.6,1.6,0,0,0,1.61,1.56,1.53,1.53,0,0,0,1.6-1.5,1.61,1.61,0,0,0-1.61-1.57A1.54,1.54,0,0,0,100.26,179.88Z" style="fill:#263238"></path><path d="M84.14,180a1.6,1.6,0,0,0,1.61,1.56,1.53,1.53,0,0,0,1.6-1.5,1.61,1.61,0,0,0-1.61-1.57A1.54,1.54,0,0,0,84.14,180Z" style="fill:#263238"></path><path d="M81.33,174.82c.2.21,1.39-.74,3.11-.79s3,.76,3.2.54-.12-.47-.69-.85a4.37,4.37,0,0,0-2.57-.69,4.19,4.19,0,0,0-2.47.89C81.39,174.35,81.22,174.73,81.33,174.82Z" style="fill:#263238"></path><path d="M98.83,175.25c.23.18,1.31-.88,3-1.12s3.08.45,3.24.21-.17-.45-.78-.77a4.42,4.42,0,0,0-2.63-.43,4.29,4.29,0,0,0-2.36,1.15C98.85,174.77,98.72,175.17,98.83,175.25Z" style="fill:#263238"></path><path d="M92.63,187.72a11.63,11.63,0,0,0-2.82-.4c-.45,0-.87-.1-1-.4a2.18,2.18,0,0,1,.25-1.32c.37-1.08.76-2.22,1.18-3.4,1.64-4.85,2.8-8.83,2.61-8.89s-1.68,3.81-3.32,8.66l-1.13,3.42a2.54,2.54,0,0,0-.16,1.74,1.09,1.09,0,0,0,.74.61,2.69,2.69,0,0,0,.76.08A11.13,11.13,0,0,0,92.63,187.72Z" style="fill:#263238"></path><path d="M92.17,208.2a31.94,31.94,0,0,0,16.6-5.08s-3.9,8.81-16.47,8.1Z" style="fill:#ff9a6c"></path><path d="M93.51,191.86a3.09,3.09,0,0,1,2.75-1.26,2.85,2.85,0,0,1,2,1,1.83,1.83,0,0,1,.21,2.06,2.11,2.11,0,0,1-2.25.65A6.55,6.55,0,0,1,94,193.05a1.83,1.83,0,0,1-.51-.49.58.58,0,0,1,0-.64" style="fill:#ff9a6c"></path><path d="M97.75,188.73c-.28,0-.21,1.87-1.77,3.26s-3.56,1.25-3.56,1.52c0,.11.45.34,1.3.34a4.73,4.73,0,0,0,3-1.16A4,4,0,0,0,98.06,190C98.11,189.17,97.88,188.72,97.75,188.73Z" style="fill:#263238"></path><path d="M97.26,166.86c.23.44,1.91,0,3.95-.05s3.74.28,4-.17c.09-.22-.25-.62-1-1a6.59,6.59,0,0,0-3-.61,6.76,6.76,0,0,0-3,.78C97.48,166.23,97.16,166.65,97.26,166.86Z" style="fill:#263238"></path><path d="M81.68,167.42c.32.38,1.49-.07,2.92-.14s2.65.16,2.91-.26c.12-.2-.09-.59-.63-.94a4.25,4.25,0,0,0-4.7.32C81.69,166.82,81.54,167.23,81.68,167.42Z" style="fill:#263238"></path><path d="M118.43,184.68s-8.87,2.62-13.57-19.26c-1.6-7.48-8.43-13.61-8.43-13.61l2.81-.81s17.36,5.16,17.65,5.38,4.27,9.07,4.27,9.07Z" style="fill:#263238"></path><path d="M116.27,183.83c0-.93,1-3.16,1.88-3.34,2.44-.47,6.88-.43,7.15,5.8.36,8.53-8.28,7.14-8.3,6.89S116.38,187.05,116.27,183.83Z" style="fill:#ffbf9d"></path><path d="M119.46,189.84s.16.1.41.2a1.47,1.47,0,0,0,1.11,0c.89-.37,1.59-1.83,1.56-3.37a4.9,4.9,0,0,0-.5-2.11,1.72,1.72,0,0,0-1.17-1.09.76.76,0,0,0-.86.44c-.1.25,0,.41-.09.43s-.18-.14-.13-.49a1,1,0,0,1,.31-.55,1.16,1.16,0,0,1,.81-.25,2.11,2.11,0,0,1,1.61,1.25,5,5,0,0,1,.62,2.36c0,1.72-.79,3.37-2,3.77a1.58,1.58,0,0,1-1.37-.16C119.49,190.05,119.44,189.86,119.46,189.84Z" style="fill:#ff9a6c"></path><path d="M112.5,180.42a11.12,11.12,0,0,1-1.27-.27,7.74,7.74,0,0,1-3-1.81,10.18,10.18,0,0,1-1.56-1.87,14.69,14.69,0,0,1-1.25-2.51,52.19,52.19,0,0,1-1.75-6.22c-.57-2.23-1.19-4.34-1.88-6.22a34.65,34.65,0,0,0-2.15-4.84,23.83,23.83,0,0,0-1.91-3c-.25-.35-.46-.59-.6-.77a2,2,0,0,0-.22-.25,1.93,1.93,0,0,0,.19.28c.12.18.33.44.56.79a28.85,28.85,0,0,1,1.84,3,36.75,36.75,0,0,1,2.1,4.84c.67,1.87,1.28,4,1.85,6.2a51.84,51.84,0,0,0,1.77,6.25,14.27,14.27,0,0,0,1.29,2.53,10.57,10.57,0,0,0,1.61,1.89,7.48,7.48,0,0,0,3.09,1.77A4.49,4.49,0,0,0,112.5,180.42Z" style="fill:#263238"></path><path d="M138.15,226.32l-19-7.17-27-5.88L70.4,216.15c-4.59.1-12.54,9.74-18.59,20.08-5.42,9.26-9.69,18.57-9.69,18.57l25.31,9.46c1.44,10.77,3.56,25,5.39,30.61,3.12,9.59,4.07,22.75,4.07,22.75L137,309.78l.85-41.29,19.77-2.58C157.63,264.46,150,230,138.15,226.32Z" style="fill:#4C53A5"></path><path d="M136.63,242.87a4.7,4.7,0,0,0,.11,1c.1.66.24,1.62.39,2.8a76.13,76.13,0,0,1,.58,9.32,77.47,77.47,0,0,1-.6,9.31c-.15,1.19-.29,2.15-.39,2.81a5.21,5.21,0,0,0-.12,1,4.44,4.44,0,0,0,.28-1c.16-.66.34-1.61.53-2.8a60.31,60.31,0,0,0,0-18.71c-.19-1.18-.37-2.14-.52-2.79A4.44,4.44,0,0,0,136.63,242.87Z" style="fill:#263238"></path><path d="M156.86,266.5l-19.53,2.11.31,5.36-4.34-6.22-6.55,13.59s2.64,7.94,4.07,12.32c3.81,11.75,9.9,24.86,17,24,8.55-1,14.6-11.26,14.32-17.83C161.91,293.89,156.86,266.5,156.86,266.5Z" style="fill:#ffbf9d"></path><polygon points="166.01 344.39 199.88 357.67 187 373.24 158.19 368.23 166.01 344.39" style="fill:#ffbf9d"></polygon><path d="M77,316.92s-.89,38.63,2.65,45.35,37.78,7,37.78,7l54,2.74,6.3-25.26s-39.29-18.24-43-20.35-12.49-5.8-12.49-5.8l-13.22-17Z" style="fill:#263238"></path><path d="M139.38,369.69a2.62,2.62,0,0,0-.43-.15l-1.24-.36-4.62-1.27-15.53-4.13h-.06a23.46,23.46,0,0,1-2.6-.17,20.22,20.22,0,0,1-4.9-1.15,23.31,23.31,0,0,1-4.24-2,23.89,23.89,0,0,1-9-9.6c-.29-.56-.47-1-.62-1.32a2.07,2.07,0,0,0-.24-.46,2.48,2.48,0,0,0,.16.49c.12.31.28.79.55,1.37a22.66,22.66,0,0,0,2.89,4.59,24.32,24.32,0,0,0,6.08,5.27,23.17,23.17,0,0,0,4.31,2.05,22.71,22.71,0,0,0,2.42.74,24,24,0,0,0,2.56.44,24.69,24.69,0,0,0,2.66.17h0l15.57,4,4.65,1.14,1.26.29A1.53,1.53,0,0,0,139.38,369.69Z" style="fill:#455a64"></path><path d="M137.77,328.67l9.2-56.24s-1.22-40.48,21.51-37.58,20,38.52,20,38.52-2.94,48.83-4.55,55.88-2.42,14.89-7.06,17.71l-20.63-3.21Z" style="fill:#263238"></path><path d="M155.5,245.09,150,258.38l3.41,50.76s29.3,2.51,29,1.71,5.25-25.28,5.25-25.28,1.82-32.49-6.86-38.69S155.5,245.09,155.5,245.09Z" style="fill:#263238"></path><path d="M154.59,309.23s.38,24.24.38,24.24l20.47,11.23L181,311Z" style="fill:#ffbf9d"></path><polygon points="108.98 303.59 131.33 294.38 144.7 306.36 137.28 330.25 117.67 322.93 108.98 303.59" style="fill:#263238"></polygon><path d="M176.44,346.73l-.27-.16-.82-.41-3.16-1.54L160.54,339l-17.31-8.24L133,325.94l-5.41-2.56-2.77-1.31-1.4-.66a10.2,10.2,0,0,0-1.44-.61,20.5,20.5,0,0,0-6.08-1.23,24.5,24.5,0,0,0-6,.37,30.36,30.36,0,0,0-10.54,4.15,33.88,33.88,0,0,0-7.75,6.73,46.69,46.69,0,0,0-5.09,7.35A67.7,67.7,0,0,0,81.39,350c-.48,1.45-.81,2.59-1,3.37l-.24.88a1.18,1.18,0,0,0-.06.3s0-.09.11-.29l.28-.87c.24-.77.6-1.89,1.1-3.33a70.7,70.7,0,0,1,5.22-11.78,47.83,47.83,0,0,1,5.1-7.26,33.59,33.59,0,0,1,7.69-6.63,30,30,0,0,1,10.4-4.07,23.75,23.75,0,0,1,5.91-.36,20.27,20.27,0,0,1,6,1.21,9.74,9.74,0,0,1,1.42.6l1.4.66,2.77,1.31,5.41,2.55,10.23,4.83,17.35,8.15,11.71,5.47,3.19,1.46.84.37A1.77,1.77,0,0,0,176.44,346.73Z" style="fill:#455a64"></path><path d="M133.86,327a22.79,22.79,0,0,1,.25-3.68,28.77,28.77,0,0,1,3.21-8.26,51.42,51.42,0,0,0,3.84-8.11,16.88,16.88,0,0,0,.64-2.66,4,4,0,0,0,.07-1c-.08,0-.22,1.41-1,3.56a63.38,63.38,0,0,1-3.94,8,26.64,26.64,0,0,0-3.12,8.41,12.34,12.34,0,0,0-.11,2.74A4.15,4.15,0,0,0,133.86,327Z" style="fill:#455a64"></path><path d="M187.72,285.57l-.08.26c0,.2-.11.46-.2.78-.17.72-.4,1.72-.71,3-.6,2.61-1.47,6.39-2.49,11.07-.51,2.34-1.06,4.9-1.59,7.67-.13.7-.27,1.39-.36,2.13a3,3,0,0,0,0,.32v.1c0,.05,0,0,0-.09l0-.06s0,0-.05,0a4.17,4.17,0,0,1-.52.05h-1.11c-1.49,0-3-.11-4.61-.2-6.32-.38-13.25-.93-20.53-1.53l-2-.17.19.2c-1-14.11-1.84-26.78-2.48-36-.33-4.56-.6-8.25-.79-10.83-.1-1.25-.18-2.23-.24-2.93,0-.32-.05-.57-.07-.76a1,1,0,0,0,0-.26,1,1,0,0,0,0,.26c0,.19,0,.45,0,.76,0,.7.1,1.69.16,2.94.16,2.58.38,6.27.66,10.84.6,9.18,1.43,21.86,2.35,36v.19h.19l2,.17c7.28.61,14.22,1.14,20.55,1.5,1.58.08,3.12.16,4.63.18h1.12a3.94,3.94,0,0,0,.58-.06.83.83,0,0,0,.21-.08.22.22,0,0,0,.08-.11.21.21,0,0,0,0-.11c0-.05-.13,0,0,0v0a2.11,2.11,0,0,1,0-.23c.08-.7.22-1.41.34-2.1.52-2.77,1.05-5.33,1.54-7.68,1-4.66,1.8-8.44,2.36-11.09l.63-3c.06-.33.12-.59.15-.79A.78.78,0,0,0,187.72,285.57Z" style="fill:#455a64"></path><path d="M160.74,241.26a3.45,3.45,0,0,0-.65.56c-.41.38-1,1-1.62,1.71a33.65,33.65,0,0,0-7.1,13.64c-.24,1-.4,1.75-.48,2.3a3.25,3.25,0,0,0-.08.86c.07,0,.31-1.19.85-3.08a38.76,38.76,0,0,1,7.05-13.53C159.94,242.19,160.8,241.31,160.74,241.26Z" style="fill:#455a64"></path><path d="M127.28,320.55a3.33,3.33,0,0,0-.14-.81c-.12-.51-.32-1.25-.6-2.15a44.81,44.81,0,0,0-2.8-6.83,45.53,45.53,0,0,0-3.89-6.27c-.56-.75-1-1.35-1.39-1.74a2.82,2.82,0,0,0-.57-.59s.65,1,1.71,2.51a58.89,58.89,0,0,1,3.75,6.29,57.56,57.56,0,0,1,2.89,6.73C126.88,319.45,127.21,320.57,127.28,320.55Z" style="fill:#455a64"></path><path d="M90.52,317.62c-.07,0-.36.85-1,2.19a26.36,26.36,0,0,1-3,4.92,25.56,25.56,0,0,1-4,4.12c-1.14.93-1.91,1.44-1.87,1.5s.22-.08.59-.28a15.33,15.33,0,0,0,1.47-1A21.58,21.58,0,0,0,86.93,325a21.92,21.92,0,0,0,2.9-5.07,15.15,15.15,0,0,0,.57-1.67A2,2,0,0,0,90.52,317.62Z" style="fill:#455a64"></path><path d="M199.38,373.61c12.62-.64,15.8-.24,28.42-.88,3.08-.16,14.29.23,16.86-1.47,2.35-1.54,5.36-3,6-5.73,1-4.62-.25-9.85-4.5-12.74a10.2,10.2,0,0,0-5-1.7c-7.45-.59-14.26,4.85-21.71,3.23-2-.43-3.82-1.55-5.82-2a12.78,12.78,0,0,0-8.73,1.4c-2.67,1.38-3.29,1.61-3.29,1.61l-13.26-4.49L184.22,374Z" style="fill:#fafafa"></path><path d="M188.14,345.34l7,2.28a2.2,2.2,0,0,1,1.46,2.54L191.17,375a2.17,2.17,0,0,1-2.38,1.71l-7.08-.79a2.18,2.18,0,0,1-1.9-2.62L185.32,347A2.19,2.19,0,0,1,188.14,345.34Z" style="fill:#fafafa"></path><path d="M191,376a25.07,25.07,0,0,0,1.29-3.73c.71-2.33,1.6-5.57,2.4-9.21s1.33-7,1.62-9.38c.14-1.21.24-2.2.28-2.88a3.25,3.25,0,0,0,0-1.06,33.23,33.23,0,0,0-.7,3.88c-.4,2.39-1,5.7-1.78,9.31s-1.63,6.88-2.23,9.23A29,29,0,0,0,191,376Z" style="fill:#263238"></path><path d="M195.39,353.33a11.1,11.1,0,0,0-11-1.75c0,.19,2.56-.54,5.65,0S195.3,353.49,195.39,353.33Z" style="fill:#263238"></path><path d="M194.56,362.71a24.66,24.66,0,0,0-5.86-1.84,24.32,24.32,0,0,0-6.08-.93,45.9,45.9,0,0,0,5.94,1.51C191.85,362.21,194.51,362.88,194.56,362.71Z" style="fill:#263238"></path><path d="M191.38,372.44c0-.19-2.71.14-5.7-1.14s-4.69-3.37-4.82-3.24.28.64,1,1.43a11.21,11.21,0,0,0,3.55,2.37,10.93,10.93,0,0,0,4.19.84A3.73,3.73,0,0,0,191.38,372.44Z" style="fill:#263238"></path><polygon points="154.06 325.72 154.59 336.2 175.51 346.24 178.99 328.74 154.06 325.72" style="fill:#fafafa"></polygon><path d="M182.45,322.59l-1.57,7.3a2.23,2.23,0,0,1-2.42,1.75l-25.76-2.83a2.23,2.23,0,0,1-2-2.23l0-7.27a2.24,2.24,0,0,1,2.46-2.2l27.28,2.79A2.23,2.23,0,0,1,182.45,322.59Z" style="fill:#fafafa"></path><path d="M151.7,328.75a23,23,0,0,0,3.91.92c2.44.46,5.82,1,9.59,1.46s7.19.6,9.68.64c1.24,0,2.24,0,2.94,0a3.72,3.72,0,0,0,1.07-.11,31.35,31.35,0,0,0-4-.3c-2.47-.15-5.88-.4-9.63-.82s-7.13-.92-9.58-1.28A30.43,30.43,0,0,0,151.7,328.75Z" style="fill:#263238"></path><path d="M175.13,330.78a9.53,9.53,0,0,0,1.83-5.59c.2-3.36-1.11-5.85-1.23-5.76s.82,2.53.62,5.72S175,330.7,175.13,330.78Z" style="fill:#263238"></path><path d="M165.53,330.94a25.07,25.07,0,0,0,1.25-6.14c.44-3.44.47-6.25.3-6.26s-.47,2.77-.9,6.18S165.36,330.9,165.53,330.94Z" style="fill:#263238"></path><path d="M155.34,328.75c.19,0-.42-2.74.55-5.9s2.92-5.11,2.77-5.23-.61.35-1.33,1.21a11.32,11.32,0,0,0-2.44,8.17A3.9,3.9,0,0,0,155.34,328.75Z" style="fill:#263238"></path><path d="M107.49,248.78s10.69,1.51,11.37,2.17,14.44,16.8,14.44,16.8l-6.55,13.59-12.13-6.25a19,19,0,0,0-3.84-1.15s-12.14-1.65-13-3.09-.38-1.79.51-2,8.15.43,9.77.69a24.79,24.79,0,0,0,4.82-.1s-5.05-1.07-6.2-1.44-12.45-2.65-12.31-4.68,1.52-2.78,8.61-1A50.32,50.32,0,0,0,115,263.93l-15.69-5.11s-6.32-1.88-4.34-3.72,15.5,1.58,15.5,1.58l6,2.12-1.76-3.55s-8.5-2.33-9.6-3.15c-1.36-1-1.57-2-.58-2.87S107.49,248.78,107.49,248.78Z" style="fill:#ffbf9d"></path><path d="M71,231.77a6.17,6.17,0,0,1-.14,1.2c-.14.87-.32,1.95-.54,3.23-.45,2.73-1,6.51-1.59,10.69s-.93,8-1.19,10.75c-.12,1.29-.23,2.38-.31,3.26a6.49,6.49,0,0,1-.17,1.2,4.8,4.8,0,0,1,0-1.21c0-.78.06-1.9.14-3.28.17-2.77.5-6.59,1-10.78s1.2-8,1.75-10.69c.28-1.36.52-2.46.7-3.21A4.76,4.76,0,0,1,71,231.77Z" style="fill:#263238"></path><path d="M141.67,232.82c0-.28-2.66-16.7-3.9-22.51l-19.56,3c-.27,2.43-.36,10.9-.3,13.75A12.63,12.63,0,0,0,120.6,235a7.68,7.68,0,0,0,7.66,2.64,10.4,10.4,0,0,0,6.41,4.3c2.6.4,5.57-.95,6.4-3.45A13.93,13.93,0,0,0,141.67,232.82Z" style="fill:#263238"></path><path d="M113.18,235.07,110.06,265a1.88,1.88,0,0,1-2,1.68l-18.52-1.48a1.87,1.87,0,0,1-1.72-2L90,231.73A1.88,1.88,0,0,1,92.18,230l19.42,3A1.87,1.87,0,0,1,113.18,235.07Z" style="fill:#263238"></path><path d="M97.54,245s-10.78-.27-11.57.27S69,259.5,69,259.5L73.22,274s11.65-3.74,13-4.18a19.6,19.6,0,0,1,4-.51s12.25.37,13.29-.92.66-1.7-.18-2.09-8.11-.91-9.75-.91a24.87,24.87,0,0,1-4.74-.89s5.16-.23,6.35-.41,12.72-.58,12.92-2.59-1-3-8.33-2.42a50.5,50.5,0,0,1-12-.32L104,256.27s6.54-.82,4.89-3-15.56-1-15.56-1l-6.25,1.11,2.31-3.22s8.77-.9,10-1.53c1.51-.78,1.88-1.7,1-2.73S97.54,245,97.54,245Z" style="fill:#ffbf9d"></path><path d="M46.26,256.35l18.08,6.75L64,265.61l5.44-6.48,5,13s-8.41,16.53-10.23,20.77C59,305.18,49.74,311.59,43.1,308.87c-8-3.26-12.58-11.7-8.93-21.06C36.34,282.24,46.26,256.35,46.26,256.35Z" style="fill:#ffbf9d"></path><path d="M69,259.5s.15-.15.44-.41l1.33-1.15,5.12-4.37L84,246.72l1.22-1,.64-.52a2.49,2.49,0,0,1,.85-.22c1.11-.12,2.25-.14,3.42-.16,2.35,0,4.82,0,7.42,0h0a5.69,5.69,0,0,1,1.95.28,2.53,2.53,0,0,1,.91.52,2.15,2.15,0,0,1,.58.9,1.35,1.35,0,0,1-.09,1.11,2.58,2.58,0,0,1-.75.79,3.79,3.79,0,0,1-1,.52c-.35.1-.69.18-1,.25-2.77.53-5.69.86-8.71,1.19l.14-.07-2.31,3.21-.19-.31,6.25-1.11h0c2.62-.2,5.32-.33,8.07-.32,1.38,0,2.78.06,4.18.22a12.83,12.83,0,0,1,2.11.39,3.5,3.5,0,0,1,1,.46,1.44,1.44,0,0,1,.65,1,1.31,1.31,0,0,1-.57,1.08,4.21,4.21,0,0,1-1,.55,12.87,12.87,0,0,1-2.11.65c-1.44.31-2.89.46-4.34.7l-8.84,1.34-4.8.72v-.42a52.7,52.7,0,0,0,11.13.37,47.52,47.52,0,0,1,5.46-.19,7.62,7.62,0,0,1,2.69.5,2,2,0,0,1,1.07,1,2.47,2.47,0,0,1,.15,1.42,1.09,1.09,0,0,1-.46.63,3.73,3.73,0,0,1-.61.34,8.58,8.58,0,0,1-1.27.42,24.77,24.77,0,0,1-2.54.5c-1.69.25-3.36.41-5,.54l-2.45.18c-.79.06-1.61.18-2.41.22-1.59.1-3.15.18-4.69.25l0-.38a20.15,20.15,0,0,0,5.18.91c1.74.07,3.43.2,5.08.34.82.08,1.64.16,2.44.26.4.05.8.1,1.19.17a4.05,4.05,0,0,1,.62.16,2.74,2.74,0,0,1,.54.32.88.88,0,0,1,.35.6,1.14,1.14,0,0,1-.14.64,3.46,3.46,0,0,1-.32.52l-.18.23a.92.92,0,0,1-.26.22,7.09,7.09,0,0,1-2.23.53,74.47,74.47,0,0,1-8.27.28l-1.87,0a13.29,13.29,0,0,0-1.79,0,12.85,12.85,0,0,0-3.26.54l-9.38,3-2.48.76-.63.19-.22.06.21-.08.63-.22,2.46-.82,9.34-3.06a21.45,21.45,0,0,1,7-.6,73.92,73.92,0,0,0,8.23-.32,6.72,6.72,0,0,0,2.11-.5.58.58,0,0,0,.17-.14l.17-.22a2.53,2.53,0,0,0,.28-.47c.17-.33.17-.64-.12-.84a2.16,2.16,0,0,0-.47-.28c-.16-.05-.35-.09-.54-.13-.38-.07-.78-.12-1.17-.17q-1.2-.13-2.43-.24c-1.64-.14-3.33-.26-5.06-.33a20.58,20.58,0,0,1-5.27-.9.2.2,0,0,1-.14-.23.2.2,0,0,1,.18-.14h0c1.54-.07,3.1-.15,4.69-.26.8,0,1.57-.16,2.4-.23l2.45-.18c1.64-.14,3.31-.29,5-.55a23.49,23.49,0,0,0,2.5-.49,8,8,0,0,0,1.2-.4c.36-.16.78-.4.83-.68a2,2,0,0,0-.12-1.15,1.61,1.61,0,0,0-.86-.76,7.34,7.34,0,0,0-2.54-.46,47,47,0,0,0-5.41.2A51.87,51.87,0,0,1,87.67,259a.2.2,0,0,1-.18-.24.21.21,0,0,1,.18-.18h0l4.8-.73,8.84-1.34c1.45-.24,2.91-.39,4.31-.69a12.26,12.26,0,0,0,2-.62,4.27,4.27,0,0,0,.89-.5.87.87,0,0,0,.41-.71c-.06-.59-.72-.94-1.37-1.11a11.71,11.71,0,0,0-2-.38,41.16,41.16,0,0,0-4.14-.22c-2.74,0-5.43.11-8,.3h0l-6.26,1.1a.19.19,0,0,1-.22-.16.2.2,0,0,1,0-.15c.81-1.11,1.6-2.22,2.32-3.21a.22.22,0,0,1,.14-.08c3-.32,5.93-.65,8.67-1.16a9.55,9.55,0,0,0,1-.24,3.25,3.25,0,0,0,.86-.46c.54-.37.95-.94.73-1.51a2,2,0,0,0-1.28-1.21,5,5,0,0,0-1.83-.26h0c-2.59-.07-5.07-.1-7.4-.07-1.17,0-2.31,0-3.4.14a2.12,2.12,0,0,0-.72.17l-.63.5-1.22,1L76,253.72,70.81,258l-1.36,1.11C69.15,259.38,69,259.5,69,259.5Z" style="fill:#ff9a6c"></path><path d="M69,259.5c.11.09-5,6.53-11.36,14.37S46,288,45.85,287.92s5-6.52,11.36-14.37S68.87,259.41,69,259.5Z" style="fill:#ff9a6c"></path></g></svg>